<?xml version="1.0" standalone="no"?>
<!DOCTYPE svg PUBLIC "-//W3C//DTD SVG 1.1//EN" "http://www.w3.org/Graphics/SVG/1.1/DTD/svg11.dtd" >
<svg xmlns="http://www.w3.org/2000/svg">
<metadata>
Created by FontPrep 20130207 at Tue Sep 23 11:22:35 2014
 By Kyle Beard
(C)2002 House Industries/Brand Design Co. Inc.
</metadata>
<defs>
<font id="790bf1ca2d6297f576439c0b32c6a271" horiz-adv-x='1024' >
  <font-face 
    font-family="NeutraText-BookAlt"
    font-weight="550"
    font-stretch="normal"
    units-per-em="2048"
    panose-1="2 0 0 0 0 0 0 0 0 0"
    ascent="1638"
    descent="-410"
    x-height="848"
    cap-height="1393"
    bbox="-117 -475 2404 1937"
    underline-thickness="40"
    underline-position="-252"
    unicode-range="U+0020-FB02"
  />
<missing-glyph horiz-adv-x="1024" 
 />
    <glyph glyph-name="fi" unicode="fi" horiz-adv-x="1030" 
d="M803 1094q-41 0 -72 27.5t-31 72.5t31 73.5t72 28.5t71.5 -28.5t30.5 -73.5t-30.5 -72.5t-71.5 -27.5zM207 727h-137v121h137v385q0 143 65.5 207.5t157.5 64.5q149 0 219 -92l-90 -86q-23 23 -45 36t-64 13q-100 0 -100 -143v-385h524v-848h-143v727h-381v-727h-143v727
z" />
    <glyph glyph-name="fl" unicode="fl" horiz-adv-x="1038" 
d="M456 1376q-52 0 -79 -29.5t-27 -113.5v-385h217v-121h-217v-727h-143v727h-137v121h137v385q0 143 64.5 207.5t153.5 64.5t134 -24.5t76 -59.5l-90 -90q-37 45 -89 45zM731 1479h143v-1479h-143v1479z" />
    <glyph glyph-name="ff" unicode="ff" horiz-adv-x="1171" 
d="M979 1376q-105 0 -105 -143v-385h228v-121h-228v-727h-143v727h-381v-727h-143v727h-137v121h137v344q0 143 64.5 207.5t154.5 64.5t140 -24.5t83 -65.5l-92 -90q-40 51 -94 51q-55 0 -84 -29.5t-29 -113.5v-344h381v385q0 143 65.5 207.5t157.5 64.5q155 0 228 -104
l-95 -84q-20 27 -42.5 43t-65.5 16z" />
    <glyph glyph-name="ffi" unicode="ffi" horiz-adv-x="1554" 
d="M1327 1094q-41 0 -71.5 27.5t-30.5 72.5t30.5 73.5t71.5 28.5t72 -28.5t31 -73.5t-31 -72.5t-72 -27.5zM463 1335q-55 0 -84 -29.5t-29 -113.5v-344h381v385q0 143 65.5 207.5t157.5 64.5q147 0 220 -92l-91 -86q-23 23 -45 36t-64 13q-100 0 -100 -143v-385h525v-848
h-144v727h-381v-727h-143v727h-381v-727h-143v727h-137v121h137v344q0 143 64.5 207.5t154.5 64.5t140 -24.5t83 -65.5l-92 -90q-39 51 -94 51z" />
    <glyph glyph-name="ffl" unicode="ffl" horiz-adv-x="1562" 
d="M980 1376q-52 0 -79 -29.5t-27 -113.5v-385h220v-121h-220v-727h-143v727h-381v-727h-143v727h-137v121h137v344q0 143 64.5 207.5t154.5 64.5t140 -24.5t83 -65.5l-92 -90q-40 51 -94 51q-55 0 -84 -29.5t-29 -113.5v-344h381v385q0 143 64.5 207.5t154.5 64.5
t134 -24.5t75 -59.5l-90 -90q-37 45 -89 45zM1255 1479h144v-1479h-144v1479z" />
    <glyph glyph-name=".notdef" horiz-adv-x="1024" 
 />
    <glyph glyph-name=".null" horiz-adv-x="0" 
 />
    <glyph glyph-name="nonmarkingreturn" horiz-adv-x="485" 
 />
    <glyph glyph-name="space" unicode=" " horiz-adv-x="485" 
 />
    <glyph glyph-name="exclam" unicode="!" horiz-adv-x="499" 
d="M170 1393h160l-25 -1004h-110zM250 -14q-43 0 -76 30.5t-33 77.5t33 79t76 32t75.5 -32t32.5 -79t-32.5 -77.5t-75.5 -30.5z" />
    <glyph glyph-name="quotedbl" unicode="&#x22;" horiz-adv-x="579" 
d="M346 1393h152l-17 -430h-116zM82 1393h151l-16 -430h-119z" />
    <glyph glyph-name="numbersign" unicode="#" horiz-adv-x="944" 
d="M59 719v115h164l56 221h-148v114h176l55 224h119l-55 -224h203l57 224h119l-55 -224h135v-114h-164l-55 -221h145v-115h-176l-53 -221h-121l55 221h-203l-53 -221h-121l58 221h-138zM547 834l55 221h-203l-57 -221h205z" />
    <glyph glyph-name="dollar" unicode="$" horiz-adv-x="1093" 
d="M487 1583h105v-178q191 -27 307 -201l-115 -78q-74 119 -192 148v-481l26 -13q189 -78 278 -176.5t89 -259.5q0 -160 -106.5 -254t-286.5 -104v-224h-105v224q-166 14 -268 93t-156 185l123 68q59 -102 124 -155t177 -64v569q-175 75 -261.5 163.5t-86.5 233.5t99 233.5
t249 96.5v174zM283 1084q0 -86 47 -140.5t157 -103.5v442q-96 -8 -150 -60t-54 -138zM840 352q0 102 -62.5 166t-185.5 119v-524q117 10 182.5 73.5t65.5 165.5z" />
    <glyph glyph-name="percent" unicode="%" horiz-adv-x="1660" 
d="M409.5 723q-67.5 0 -131 25.5t-110.5 71.5t-76 109.5t-29 137.5t29 137.5t76 108.5t110.5 70.5t131 25.5t131 -25.5t111.5 -70.5t77 -108.5t29 -137.5t-29 -137.5t-77 -109.5t-111.5 -71.5t-131 -25.5zM1196 1393h145l-876 -1393h-146zM1249.5 -16q-67.5 0 -131 25.5
t-110.5 70.5t-76 108.5t-29 137t29 137t76 108.5t110.5 71t131 26t131 -26t110.5 -71t75.5 -108.5t28.5 -137t-28.5 -137t-75.5 -108.5t-110.5 -70.5t-131 -25.5zM409.5 842q90.5 0 153 62.5t62.5 162.5t-62.5 161.5t-153 61.5t-151.5 -61.5t-61 -161.5t61 -162.5
t151.5 -62.5zM1464 330q0 98 -62.5 159.5t-152.5 61.5t-152.5 -61.5t-62.5 -160.5t61.5 -164t153.5 -65t153.5 66t61.5 164z" />
    <glyph glyph-name="ampersand" unicode="&#x26;" horiz-adv-x="1339" 
d="M88 362q0 224 141.5 317t216.5 134l-24 31q-113 139 -113 271t83.5 213t216.5 81t213.5 -82.5t80.5 -195.5t-69.5 -194t-186.5 -149l307 -372q59 143 60 338h141q0 -260 -104 -455l245 -299h-178l-149 180q-176 -196 -439 -196q-205 0 -323.5 102t-118.5 276zM768 1122
q0 76 -44 120t-115 44t-114.5 -43t-43.5 -109t21.5 -112.5t59.5 -93.5l39 -47q90 53 143.5 109t53.5 132zM514 115q234 0 367 172l-361 436q-144 -82 -211 -156.5t-67 -195.5t75 -188.5t197 -67.5z" />
    <glyph glyph-name="quotesingle" unicode="'" horiz-adv-x="315" 
d="M82 1393h151l-16 -430h-119z" />
    <glyph glyph-name="parenleft" unicode="(" horiz-adv-x="589" 
d="M442 1470l90 -73q-292 -346 -292 -801q0 -371 116.5 -551t175.5 -250l-90 -74q-352 363 -352 874q0 512 352 875z" />
    <glyph glyph-name="parenright" unicode=")" horiz-adv-x="589" 
d="M145 -279l-88 74q211 251 251 456.5t40 343.5q0 262 -78 453.5t-213 348.5l88 73q355 -366 355 -874.5t-355 -874.5z" />
    <glyph glyph-name="asterisk" unicode="*" horiz-adv-x="806" 
d="M369 1024l-201 -150l-64 111l240 96l-240 97l64 110l201 -147l-31 252h129l-31 -252l203 147l63 -110l-241 -97l239 -96l-61 -111l-203 150l31 -256h-129z" />
    <glyph glyph-name="plus" unicode="+" horiz-adv-x="845" 
d="M356 596h-276v127h276v297h131v-297h279v-127h-279v-297h-131v297z" />
    <glyph glyph-name="comma" unicode="," horiz-adv-x="413" 
d="M96 103q0 42 34 74t78 32t76.5 -32t32.5 -76t-24 -85l-123 -245h-80l80 227q-74 22 -74 105z" />
    <glyph glyph-name="hyphen" unicode="-" horiz-adv-x="585" 
d="M94 539h395v-129h-395v129z" />
    <glyph glyph-name="hyphen" unicode="&#xad;" horiz-adv-x="585" 
d="M94 539h395v-129h-395v129z" />
    <glyph glyph-name="period" unicode="." horiz-adv-x="413" 
d="M208 -14q-44 0 -78 32.5t-34 79.5t34 79t78 32t76.5 -32t32.5 -79t-32.5 -79.5t-76.5 -32.5z" />
    <glyph glyph-name="slash" unicode="/" horiz-adv-x="876" 
d="M645 1479h143l-614 -1741h-143z" />
    <glyph glyph-name="zero" unicode="0" horiz-adv-x="1503" 
d="M284.5 1209q188.5 200 466.5 200t467 -199.5t189 -514t-189 -513t-467 -198.5t-466.5 199.5t-188.5 512.5t188.5 513zM1251 696q0 256 -136 418t-363 162t-363.5 -162.5t-136.5 -417.5t137 -417t363 -162t362.5 161.5t136.5 417.5z" />
    <glyph glyph-name="one" unicode="1" horiz-adv-x="653" 
d="M301 1262h-227v131h377v-1393h-150v1262z" />
    <glyph glyph-name="two" unicode="2" horiz-adv-x="1091" 
d="M457 131h532v-131h-932v14l572 607q96 100 149 193t53 204t-67.5 183.5t-188.5 72.5t-203.5 -70.5t-113.5 -208.5l-141 31q58 266 208 324.5t245 58.5q189 0 300 -109t111 -286q0 -131 -67.5 -245t-170.5 -224l-309 -328q-52 -58 -104 -94q80 8 127 8z" />
    <glyph glyph-name="three" unicode="3" horiz-adv-x="1122" 
d="M641 1262h-483v131h837v-15l-319 -381q-29 -33 -51 -52q-21 -19 -31 -30q197 -8 320.5 -135.5t123.5 -332.5q0 -204 -141 -333.5t-362 -129.5q-167 0 -297.5 77t-196.5 203l123 66q51 -92 139.5 -152.5t198.5 -60.5t178 26.5t114 72.5t70.5 109.5t24.5 137.5t-24.5 136.5
t-73 107.5t-117 70.5t-154.5 25.5t-170 -29l-10 14l340 406q10 12 14 16l62 62q-40 -10 -115 -10z" />
    <glyph glyph-name="four" unicode="4" horiz-adv-x="1208" 
d="M823 258h-766v76l904 1091h12v-1042h155v-125h-155v-258h-150v258zM393 383h430v573q0 93 11 146l-29 -43q-34 -51 -62 -84l-395 -502q-64 -67 -106 -100q135 10 151 10z" />
    <glyph glyph-name="five" unicode="5" horiz-adv-x="1124" 
d="M180 1393h756v-131h-625v-373q97 57 221 57q233 0 369.5 -133.5t136.5 -350.5q0 -216 -140.5 -347t-362.5 -131q-166 0 -294 71.5t-194 192.5l127 69q49 -86 138 -143t234 -57t241 99t96 252.5t-97 252t-275 98.5t-318 -129l-13 8v695z" />
    <glyph glyph-name="six" unicode="6" horiz-adv-x="1163" 
d="M605 918q105 0 189.5 -36t144.5 -97.5t95 -146.5t35 -183.5t-36 -183.5t-100.5 -149.5t-153.5 -101t-249.5 -36.5t-298 135.5t-137.5 331.5q0 161 117 331l428 611h166l-297 -422q-33 -47 -107 -125q99 72 204 72zM826.5 697q-91.5 100 -243.5 100t-244.5 -99.5
t-92.5 -241.5t92 -240.5t243.5 -98.5t244 99t92.5 240t-91.5 241z" />
    <glyph glyph-name="seven" unicode="7" horiz-adv-x="1124" 
d="M70 1262v131h999v-15l-690 -1378h-158l631 1262h-782z" />
    <glyph glyph-name="eight" unicode="8" horiz-adv-x="1165" 
d="M80 416q0 145 87 241.5t228 133.5q-90 35 -144 107.5t-54 161.5t29.5 149.5t81.5 105.5t123 69.5t196 24.5t235.5 -95.5t110.5 -236.5q0 -106 -55.5 -179t-145.5 -107q141 -39 227 -134.5t86 -240.5q0 -190 -138 -311t-362.5 -121t-364.5 121t-140 311zM583.5 850
q110.5 0 176 60.5t65.5 154.5t-65.5 154.5t-176 60.5t-176 -60.5t-65.5 -154.5t65.5 -154.5t176 -60.5zM231 418q0 -133 96.5 -217t255.5 -84t255 84t96 218t-96.5 218t-253.5 84t-255 -85t-98 -218z" />
    <glyph glyph-name="nine" unicode="9" horiz-adv-x="1163" 
d="M556 465q-204 0 -336 134t-132 334q0 199 138.5 337.5t353.5 138.5t355 -138t140 -335q0 -157 -121 -334l-405 -602h-164l289 426q39 57 86 109q-98 -70 -204 -70zM924 932q0 144 -94 244t-250.5 100t-248 -101t-91.5 -245t91.5 -244t247.5 -100t250.5 101t94.5 245z" />
    <glyph glyph-name="colon" unicode=":" horiz-adv-x="434" 
d="M218 444q-44 0 -78 33t-34 80t34 79t78 32t77 -32t33 -79t-33 -80t-77 -33zM218 -14q-44 0 -78 32.5t-34 79.5t34 79t78 32t77 -32t33 -79t-33 -79.5t-77 -32.5z" />
    <glyph glyph-name="semicolon" unicode=";" horiz-adv-x="434" 
d="M218 444q-44 0 -78 33t-34 80t34 79t78 32t77 -32t33 -79t-33 -80t-77 -33zM106 103q0 42 34 74t78 32t77 -32t33 -75t-25 -86l-123 -245h-80l80 227q-74 22 -74 105z" />
    <glyph glyph-name="semicolon" unicode="&#x37e;" horiz-adv-x="434" 
d="M218 444q-44 0 -78 33t-34 80t34 79t78 32t77 -32t33 -79t-33 -80t-77 -33zM106 103q0 42 34 74t78 32t77 -32t33 -75t-25 -86l-123 -245h-80l80 227q-74 22 -74 105z" />
    <glyph glyph-name="less" unicode="&#x3c;" horiz-adv-x="800" 
d="M74 647v21l626 336v-134l-411 -215l411 -217v-133z" />
    <glyph glyph-name="equal" unicode="=" horiz-adv-x="841" 
d="M86 848h670v-127h-670v127zM86 547h670v-125h-670v125z" />
    <glyph glyph-name="greater" unicode="&#x3e;" horiz-adv-x="800" 
d="M100 438l414 215l-414 217v134l627 -342v-21l-627 -336v133z" />
    <glyph glyph-name="question" unicode="?" horiz-adv-x="960" 
d="M356 743h68q131 0 209 78t78 199t-71 190.5t-180 69.5t-174 -44t-112 -136l-119 61q51 123 154.5 185.5t219.5 62.5q206 0 317.5 -107.5t111.5 -277.5t-100.5 -275.5t-265.5 -117.5v-248h-136v360zM422 -14q-43 0 -76 30.5t-33 77.5t33 79t76 32t75.5 -32t32.5 -79
t-32.5 -77.5t-75.5 -30.5z" />
    <glyph glyph-name="at" unicode="@" horiz-adv-x="1814" 
d="M100 384q0 179 65.5 328.5t176.5 258t259.5 169t318.5 60.5t316 -57.5t252.5 -158.5t166 -239.5t59.5 -278.5q0 -250 -86.5 -364t-230.5 -114q-205 0 -238 192q-88 -196 -295 -196q-154 0 -256 110.5t-102 280.5t102 283.5t254 113.5q100 0 168 -49t105 -127l-5 156h142
v-473q0 -88 28.5 -134.5t104.5 -46.5t129 81t53 241q0 304 -182.5 484.5t-484.5 180.5t-493 -199t-191 -500t187.5 -498t494.5 -197q184 0 335 82l54 -103q-168 -92 -365 -92q-196 0 -344.5 57.5t-259.5 164t-174.5 256t-63.5 328.5zM1065 570q-70 81 -175 81
q-104 0 -171.5 -80.5t-67.5 -197t67 -194t174 -77.5q102 0 172.5 79t70.5 193.5t-70 195.5z" />
    <glyph glyph-name="A" unicode="A" horiz-adv-x="1343" 
d="M653 1407h25l590 -1407h-156l-94 233h-705l-92 -233h-145zM965 360l-246 619q-10 25 -13 32l-24 74q-8 29 -16 60q-10 -31 -27 -85t-29 -81l-245 -619h600z" />
    <glyph glyph-name="B" unicode="B" horiz-adv-x="1247" 
d="M1047 1051q0 -219 -181 -277q135 -33 211 -129t76 -235q0 -183 -113.5 -296.5t-326.5 -113.5h-523v1393h474q187 0 285 -98t98 -244zM674 823q121 0 173 61.5t52 157.5q0 156 -89 188t-157 32h-315v-439h336zM702 131q226 0 264 110.5t38 172.5q0 123 -75 202.5
t-235 79.5h-356v-565h364z" />
    <glyph glyph-name="C" unicode="C" horiz-adv-x="1486" 
d="M846 -16q-168 0 -299 52t-227.5 146t-152.5 225.5t-56 289t56 288.5t152.5 225.5t227.5 146.5t278 52q373 0 553 -270l-112 -82q-68 100 -178 159.5t-248 59.5t-240 -44t-177 -122t-117 -183.5t-42 -292.5t159.5 -352t401.5 -165q298 0 459 233l115 -80
q-92 -135 -238.5 -210.5t-314.5 -75.5z" />
    <glyph glyph-name="D" unicode="D" horiz-adv-x="1392" 
d="M190 1393h338q346 0 550 -188.5t204 -507t-201.5 -508t-552.5 -189.5h-338v1393zM518 133q300 0 454 152t154 411.5t-154 411.5t-454 152h-180v-1127h180z" />
    <glyph glyph-name="E" unicode="E" horiz-adv-x="1187" 
d="M190 1393h848v-131h-700v-654h625v-129h-625v-348h729v-131h-877v1393z" />
    <glyph glyph-name="F" unicode="F" horiz-adv-x="1138" 
d="M190 1393h838v-131h-690v-654h627v-135h-627v-473h-148v1393z" />
    <glyph glyph-name="G" unicode="G" horiz-adv-x="1560" 
d="M297 187.5q-205 203.5 -205 508.5q0 156 56.5 287t206.5 278.5t454 147.5q388 0 565 -281l-117 -84q-147 231 -448 232q-243 0 -403 -165.5t-160 -413.5t160 -414t396 -166q237 0 372.5 117t160.5 290h-497v131h657q-4 -305 -187 -488t-495 -183q-311 0 -516 203.5z" />
    <glyph glyph-name="H" unicode="H" horiz-adv-x="1421" 
d="M190 1393h148v-785h745v785h148v-1393h-148v473h-745v-473h-148v1393z" />
    <glyph glyph-name="I" unicode="I" horiz-adv-x="542" 
d="M197 1393h149v-1393h-149v1393z" />
    <glyph glyph-name="J" unicode="J" horiz-adv-x="989" 
d="M651 371v1022h150v-1026q0 -186 -102.5 -284.5t-255.5 -98.5q-154 0 -241 60t-134 149l120 75q88 -151 234 -151q104 0 166.5 59.5t62.5 194.5z" />
    <glyph glyph-name="K" unicode="K" horiz-adv-x="1243" 
d="M338 0h-148v1393h148v-660q0 -85 -12 -190q61 119 100 172l526 678h166l-516 -672l572 -721h-183l-485 612l-168 -202v-410z" />
    <glyph glyph-name="L" unicode="L" horiz-adv-x="1079" 
d="M190 1393h148v-1262h657v-131h-805v1393z" />
    <glyph glyph-name="M" unicode="M" horiz-adv-x="1705" 
d="M287 1409h20l477 -805q27 -47 42 -83t28 -60q12 25 33 73t37 70l477 805h18l154 -1409h-150l-96 850q-4 33 -6 69.5t-4 70.5t-2 69q-36 -104 -88 -199l-369 -627h-16l-367 627q-37 67 -61 129l-29 72q0 -37 -2 -72t-4 -70.5t-6 -68.5l-97 -850h-143z" />
    <glyph glyph-name="N" unicode="N" horiz-adv-x="1460" 
d="M1133 453v940h137v-1407h-25l-831 983q-19 19 -97 129q1 -29 7 -71t6 -87v-940h-140v1407h25l832 -983q14 -18 31.5 -40t32.5 -44t32 -45q-10 72 -10 158z" />
    <glyph glyph-name="O" unicode="O" horiz-adv-x="1652" 
d="M826 -16q-148 0 -279 52t-227.5 146t-152.5 225.5t-56 289t56 288.5t152.5 225.5t227.5 146.5t279 52t278.5 -52t228 -146.5t153.5 -225.5t56 -288.5t-56 -289t-153.5 -225.5t-228 -146t-278.5 -52zM1228 1111q-161 165 -403 165t-401.5 -165.5t-159.5 -414.5t159.5 -414
t402.5 -165q241 0 402 164.5t161 414.5t-161 415z" />
    <glyph glyph-name="P" unicode="P" horiz-adv-x="1196" 
d="M190 1393h316q278 0 426.5 -141t148.5 -381t-148 -382.5t-427 -142.5h-168v-346h-148v1393zM498 475q330 0 380 153.5t50 288t-104.5 240t-325.5 105.5h-160v-787h160z" />
    <glyph glyph-name="Q" unicode="Q" horiz-adv-x="1652" 
d="M897 -330h-141v316q-275 24 -460 222t-185 498t152.5 449.5t283.5 201.5t279 52q301 0 508.5 -201t207.5 -501q0 -301 -184 -497.5t-461 -221.5v-318zM756 410h141v-295q217 24 354.5 185.5t137.5 403.5t-161 407t-403 165t-401.5 -165.5t-159.5 -405.5t136.5 -403
t355.5 -187v295z" />
    <glyph glyph-name="R" unicode="R" horiz-adv-x="1220" 
d="M504 369h-166v-369h-148v1393h314q277 0 427 -140.5t150 -373.5q0 -158 -72.5 -275t-217.5 -176l303 -428h-174l-269 381q-72 -12 -147 -12zM496 498q332 0 382 149.5t50 278.5t-104.5 232.5t-327.5 103.5h-158v-764h158z" />
    <glyph glyph-name="S" unicode="S" horiz-adv-x="1087" 
d="M829 351q0 103 -62.5 167.5t-199.5 124.5l-110 51q-157 70 -232 156.5t-75 230.5t102.5 236t253.5 92t241.5 -58.5t145.5 -150.5l-119 -74q-41 66 -100.5 109t-160.5 43t-159.5 -54.5t-58.5 -145.5t52 -143t169 -106l111 -51q181 -82 265.5 -178t84.5 -256t-121 -260
t-314 -100q-181 0 -301.5 79t-181.5 203l123 66q60 -103 141 -160t218 -57q195 0 241.5 91t46.5 145z" />
    <glyph glyph-name="T" unicode="T" horiz-adv-x="1138" 
d="M496 1262h-428v131h1003v-131h-428v-1262h-147v1262z" />
    <glyph glyph-name="U" unicode="U" horiz-adv-x="1355" 
d="M178 475v918h148v-908q0 -186 94 -278t257 -92t258 92t95 278v908h148v-918q0 -238 -139 -364.5t-361 -126.5t-361 126.5t-139 364.5z" />
    <glyph glyph-name="V" unicode="V" horiz-adv-x="1343" 
d="M76 1393h160l382 -944q19 -52 34 -104t26 -85q21 86 59 189l381 944h150l-580 -1407h-24z" />
    <glyph glyph-name="W" unicode="W" horiz-adv-x="1951" 
d="M72 1393h157l293 -928q7 -29 21 -77t18 -75q22 99 45 152l363 942h24l363 -942q22 -63 45 -152q4 27 11 52t13.5 51t14.5 49l291 928h149l-459 -1407h-24l-375 991q-10 23 -16.5 46t-13.5 45t-11 46q-5 -33 -43 -137l-381 -991h-25z" />
    <glyph glyph-name="X" unicode="X" horiz-adv-x="1300" 
d="M565 758l-401 635h168l276 -435q35 -68 45 -96q14 55 43 96l275 435h162l-400 -635l481 -758h-167l-355 557q-22 30 -47 98q-10 -40 -43 -98l-352 -557h-162z" />
    <glyph glyph-name="Y" unicode="Y" horiz-adv-x="1343" 
d="M754 0h-152v436l-526 957h166l379 -693q27 -53 38 -84t21 -57q17 55 33 87t26 54l377 693h154l-516 -951v-442z" />
    <glyph glyph-name="Z" unicode="Z" horiz-adv-x="1189" 
d="M190 1262v131h897v-23l-776 -1239h781v-131h-1012v23l778 1239h-668z" />
    <glyph glyph-name="bracketleft" unicode="[" horiz-adv-x="624" 
d="M156 1479h395v-123h-252v-1495h252v-123h-395v1741z" />
    <glyph glyph-name="backslash" unicode="\" horiz-adv-x="878" 
d="M88 1479h143l617 -1741h-143z" />
    <glyph glyph-name="bracketright" unicode="]" horiz-adv-x="624" 
d="M74 -139h252v1495h-252v123h397v-1741h-397v123z" />
    <glyph glyph-name="asciicircum" unicode="^" horiz-adv-x="854" 
d="M418 1409h18l279 -461h-119l-168 258l-170 -258h-119z" />
    <glyph glyph-name="underscore" unicode="_" horiz-adv-x="524" 
d="M-4 -135h532v-127h-532v127z" />
    <glyph glyph-name="grave" unicode="`" horiz-adv-x="1024" 
d="M268 1415h164l139 -395h-112z" />
    <glyph glyph-name="a" unicode="a" horiz-adv-x="1122" 
d="M506 866q223 0 323 -200l-4 182h144v-848h-144l4 182q-43 -86 -125 -142t-184 -56q-188 0 -305 126.5t-117 316.5q0 189 117.5 314t290.5 125zM248 425q0 -138 76 -227t211 -89t214.5 89.5t79.5 224t-79.5 225.5t-214.5 91t-211 -88t-76 -226z" />
    <glyph glyph-name="b" unicode="b" horiz-adv-x="1128" 
d="M621 866q171 0 290 -125t119 -316t-119 -316t-293 -125q-115 0 -199.5 55t-127.5 143l4 -182h-141v1479h141v-805q105 192 326 192zM804 198q79 89 79 229t-82 226t-212.5 86t-215 -86.5t-84.5 -226.5t84 -228.5t218 -88.5t213 89z" />
    <glyph glyph-name="c" unicode="c" horiz-adv-x="956" 
d="M881 135q-124 -151 -326 -151q-203 0 -330 127t-127 312.5t126.5 314t324.5 128.5t323 -151l-102 -84q-83 108 -225 108t-220.5 -90t-78.5 -225t78.5 -225t220.5 -90t237 110z" />
    <glyph glyph-name="d" unicode="d" horiz-adv-x="1128" 
d="M508 866q219 0 326 -192v805h141v-1479h-141l4 182q-43 -88 -128.5 -143t-185.5 -55q-190 0 -308 126t-118 315t118.5 315t291.5 126zM246 427q0 -140 79 -229t213 -89t218 88t84 229q0 140 -84.5 226.5t-215 86.5t-212.5 -86t-82 -226z" />
    <glyph glyph-name="e" unicode="e" horiz-adv-x="1056" 
d="M913 131q-131 -147 -347 -147t-342 126t-126 312t125 315t321 129t311.5 -138t107.5 -351h-721q14 -123 94 -198t235 -75t254 113zM537 745q-123 0 -200 -71.5t-93 -188.5h575q-13 180 -114 220t-168 40z" />
    <glyph glyph-name="f" unicode="f" horiz-adv-x="651" 
d="M455 1376q-105 0 -105 -143v-385h228v-121h-228v-727h-143v727h-137v121h137v385q0 143 65.5 207.5t156.5 64.5q157 0 228 -104l-94 -84q-20 27 -42.5 43t-65.5 16z" />
    <glyph glyph-name="g" unicode="g" horiz-adv-x="1130" 
d="M545 -334q289 0 289 318v192q-41 -84 -125.5 -138t-184.5 -54q-190 0 -308 126t-118 315t118.5 315t291.5 126q123 0 204 -56t126 -144l-4 182h143v-875q0 -214 -115 -322t-293 -108q-317 0 -450 236l106 74q110 -187 320 -187zM246 427q0 -140 79 -229t213 -89t218 88
t84 229q0 140 -84.5 226.5t-215 86.5t-212.5 -86t-82 -226z" />
    <glyph glyph-name="h" unicode="h" horiz-adv-x="1056" 
d="M770 500q0 235 -211 235q-119 0 -191.5 -70.5t-72.5 -197.5v-467h-143v1479h143v-797q41 86 119 135t182 49q141 0 229 -92t88 -258v-516h-143v500z" />
    <glyph glyph-name="i" unicode="i" horiz-adv-x="454" 
d="M227 1094q-41 0 -71.5 27.5t-30.5 72.5t30.5 73.5t71.5 28.5t72 -28.5t31 -73.5t-31 -72.5t-72 -27.5zM156 848h143v-848h-143v848z" />
    <glyph glyph-name="j" unicode="j" horiz-adv-x="454" 
d="M227 1094q-41 0 -71.5 27.5t-30.5 72.5t30.5 73.5t71.5 28.5t72 -28.5t31 -73.5t-31 -72.5t-72 -27.5zM61 -332q95 0 95 129v1051h143v-1049q0 -127 -62.5 -190.5t-147.5 -63.5t-131 26t-75 58l80 86q20 -18 42 -32.5t56 -14.5z" />
    <glyph glyph-name="k" unicode="k" horiz-adv-x="948" 
d="M295 0h-143v1479h143v-949q0 -63 -10 -120l403 438h166l-326 -356l377 -492h-170l-307 397l-133 -139v-258z" />
    <glyph glyph-name="l" unicode="l" horiz-adv-x="466" 
d="M162 1479h143v-1479h-143v1479z" />
    <glyph glyph-name="m" unicode="m" horiz-adv-x="1550" 
d="M557 866q100 0 163.5 -49t92.5 -129q47 86 124 132t169 46q141 0 221 -86t80 -237v-543h-141v524q0 102 -43 156.5t-145 54.5t-164 -66.5t-62 -193.5v-475h-143v524q0 102 -43.5 156.5t-143.5 54.5t-163.5 -66.5t-63.5 -193.5v-475h-143v848h143l-4 -160q85 178 266 178z
" />
    <glyph glyph-name="n" unicode="n" horiz-adv-x="1056" 
d="M770 500q0 235 -211 235q-119 0 -191.5 -70.5t-72.5 -197.5v-467h-143v848h143l-4 -174q41 92 121 142t184 50q141 0 229 -92t88 -258v-516h-143v500z" />
    <glyph glyph-name="o" unicode="o" horiz-adv-x="1093" 
d="M227 737q129 129 322 129t319.5 -129t126.5 -313.5t-127.5 -312t-318.5 -127.5t-321 127.5t-130 312t129 313.5zM548.5 106q67.5 0 123 24t95.5 67t61.5 101t21.5 126t-21.5 126t-61.5 101t-95.5 66.5t-123 23.5t-123.5 -23.5t-96 -66.5t-62.5 -101t-22.5 -126t22.5 -126
t62.5 -101t96 -67t123.5 -24z" />
    <glyph glyph-name="p" unicode="p" horiz-adv-x="1128" 
d="M154 848h141l-4 -182q45 88 127 144t186 56q189 0 307.5 -125t118.5 -316t-119 -316t-293 -125q-115 0 -198.5 54t-124.5 138v-610h-141v1282zM804 198q79 89 79 229t-82 226t-212.5 86t-215 -86.5t-84.5 -226.5t84 -228.5t218 -88.5t213 89z" />
    <glyph glyph-name="q" unicode="q" horiz-adv-x="1130" 
d="M524 -16q-190 0 -308 126t-118 315t118.5 315t291.5 126q123 0 204 -56t126 -144l-4 182h143v-1282h-143v610q-41 -84 -125.5 -138t-184.5 -54zM246 427q0 -140 79 -229t213 -89t218 88t84 229q0 140 -84.5 226.5t-215 86.5t-212.5 -86t-82 -226z" />
    <glyph glyph-name="r" unicode="r" horiz-adv-x="731" 
d="M295 446v-446h-143v848h143l-4 -166q76 182 248 182q90 0 147 -41l-55 -125q-47 33 -127 33t-144.5 -67.5t-64.5 -217.5z" />
    <glyph glyph-name="s" unicode="s" horiz-adv-x="839" 
d="M304 556.5q40 -25.5 127 -49.5q167 -47 240.5 -103.5t73.5 -166.5t-74.5 -181.5t-224.5 -71.5t-240.5 58t-131.5 138l110 64q87 -144 246 -144q86 0 133 34t47 81t-14 69.5t-47.5 42t-120.5 45.5q-88 25 -191.5 65.5t-103.5 199.5q0 109 80.5 169t188.5 60
q195 0 292 -137l-98 -76q-71 97 -184 97q-70 0 -109 -30t-39 -84t40 -79.5z" />
    <glyph glyph-name="t" unicode="t" horiz-adv-x="688" 
d="M428 -18q-160 0 -193.5 99t-33.5 175v471h-131v121h131v442h141v-442h238v-121h-238v-473q0 -86 26.5 -117t81.5 -31t107 50l78 -90q-84 -84 -207 -84z" />
    <glyph glyph-name="u" unicode="u" horiz-adv-x="1036" 
d="M515 -18q-175 0 -273.5 103t-98.5 290v473h144v-467q0 -133 54 -202.5t177 -69.5t178.5 69.5t55.5 202.5v467h141v-473q0 -186 -101.5 -289.5t-276.5 -103.5z" />
    <glyph glyph-name="v" unicode="v" horiz-adv-x="946" 
d="M51 848h158l225 -490q29 -66 47 -145q10 68 45 145l222 490h147l-406 -864h-26z" />
    <glyph glyph-name="w" unicode="w" horiz-adv-x="1398" 
d="M51 848h156l182 -467q8 -23 18.5 -49.5t20.5 -81.5q9 54 43 131l221 479h19l225 -477q36 -85 45 -133q13 74 39 133l182 465h146l-353 -866h-20l-234 510q-32 66 -41 124q-4 -23 -11 -43t-14 -41.5t-16 -39.5l-239 -510h-21z" />
    <glyph glyph-name="x" unicode="x" horiz-adv-x="962" 
d="M399 451l-290 397h170l159 -221q10 -12 22 -37.5t27 -50.5q2 14 11 30q10 29 30 58l162 221h158l-287 -387l338 -461h-172l-201 279q-10 12 -18 27.5t-16.5 31.5t-18.5 35q-8 -18 -16 -34.5t-15.5 -32t-17.5 -27.5l-203 -279h-158z" />
    <glyph glyph-name="y" unicode="y" horiz-adv-x="946" 
d="M412 72l-361 776h158l240 -526q26 -64 38 -144q13 90 39 144l222 526h147l-553 -1282h-147z" />
    <glyph glyph-name="z" unicode="z" horiz-adv-x="854" 
d="M119 729v119h667v-23l-493 -706h483v-119h-710v20l489 709h-436z" />
    <glyph glyph-name="braceleft" unicode="{" horiz-adv-x="751" 
d="M289 1184q0 295 272 295h117v-123h-109q-66 0 -100.5 -36t-34.5 -138v-447q0 -96 -38 -136t-95 -52q57 -12 95 -53t38 -138v-321q0 -102 35 -138t100 -36h109v-123h-117q-272 0 -272 295v309q0 82 -31 111.5t-88 29.5h-119v125h119q57 0 88 30t31 112v434z" />
    <glyph glyph-name="bar" unicode="|" horiz-adv-x="485" 
d="M174 1479h137v-1741h-137v1741z" />
    <glyph glyph-name="braceright" unicode="}" horiz-adv-x="749" 
d="M317 356q0 166 134 189q-57 12 -95.5 53t-38.5 137v447q0 102 -34.5 138t-100.5 36h-108v123h116q271 0 271 -295v-432q0 -82 31.5 -113t89.5 -31h116v-125h-116q-57 0 -89 -29.5t-32 -109.5v-311q0 -166 -74.5 -230.5t-196.5 -64.5h-116v123h108q66 0 100.5 35.5
t34.5 138.5v321z" />
    <glyph glyph-name="asciitilde" unicode="~" horiz-adv-x="804" 
d="M281 696q45 0 75.5 -18t67.5 -50t54.5 -44.5t47.5 -12.5q57 0 68 121l106 -10q-4 -111 -50 -168t-124 -57q-45 0 -75.5 18.5t-67.5 50.5t-54.5 43t-43.5 11q-61 0 -74 -121l-107 10q4 111 52.5 169t124.5 58z" />
    <glyph glyph-name="nonbreakingspace" unicode="&#xa0;" horiz-adv-x="372" 
 />
    <glyph glyph-name="exclamdown" unicode="&#xa1;" horiz-adv-x="499" 
d="M250 1407q43 0 75.5 -30.5t32.5 -78t-32.5 -79t-75.5 -31.5t-76 31.5t-33 79t33 78t76 30.5zM330 0h-160l25 1004h110z" />
    <glyph glyph-name="cent" unicode="&#xa2;" horiz-adv-x="962" 
d="M582 -238h-105v226q-163 20 -271 143t-108 291.5t107 294t272 145.5v221h105v-219q179 -11 292 -149l-100 -82q-75 92 -192 106v-630q127 14 204 110l99 -84q-115 -138 -303 -149v-224zM244 424q0 -121 61.5 -206t171.5 -105v622q-109 -20 -171 -105t-62 -206z" />
    <glyph glyph-name="sterling" unicode="&#xa3;" horiz-adv-x="1234" 
d="M166 565v115h158q-31 74 -55.5 152.5t-24.5 166.5q0 176 119 293t296 117t276 -67.5t155 -184.5l-123 -63q-43 90 -111 138t-188 48t-196.5 -76t-76.5 -184t23.5 -186t54.5 -154h401v-115h-356q53 -141 53 -270q0 -31 -6 -62q63 -47 131 -84.5t152 -37.5t128 28.5
t85 81.5l100 -84q-63 -80 -130 -116.5t-175 -36.5t-187 43t-145 96q-90 -139 -256 -139q-91 0 -155 51.5t-64 141.5q0 89 62.5 140.5t149.5 51.5t179 -47q-6 98 -65 243h-209zM285 264q-117 0 -117 -63.5t29.5 -88t79.5 -24.5t90.5 29t58.5 84q-81 63 -141 63z" />
    <glyph glyph-name="currency" unicode="&#xa4;" horiz-adv-x="1546" 
d="M254 672v32q0 33 2 48h-174v114h188q50 240 225.5 391.5t409.5 151.5q182 0 302 -66.5t200 -189.5l-113 -80q-104 154 -209.5 178.5t-188.5 24.5q-176 0 -300 -112.5t-166 -297.5h660v-114h-676q-2 -14 -2 -18v-38q0 -63 8 -121h670v-114h-641q53 -158 172.5 -252
t291.5 -94q280 0 424 241l117 -71q-173 -301 -541 -301q-224 0 -393.5 131t-232.5 346h-205v114h180q-8 59 -8 97z" />
    <glyph glyph-name="yen" unicode="&#xa5;" horiz-adv-x="1267" 
d="M1139 670v-115h-369l-61 -121v-61h430v-113h-430v-260h-150v260h-428v113h428v65l-59 117h-369v115h309l-368 723h161l347 -697q10 -23 20 -49t21 -49q8 -27 18 -53q10 27 24 70t35 81l346 697h152l-369 -723h312z" />
    <glyph glyph-name="brokenbar" unicode="&#xa6;" 
d="M208 387q-44 0 -78 33t-34 80t34 78.5t78 31.5t76.5 -31.5t32.5 -78.5t-32.5 -80t-76.5 -33z" />
    <glyph glyph-name="section" unicode="&#xa7;" horiz-adv-x="1132" 
d="M352 1070q0 -91 48.5 -140t140.5 -90l221 -101q158 -72 226.5 -151.5t68.5 -181.5q0 -185 -189 -261q66 -84 66 -173q0 -163 -99.5 -252t-265.5 -89q-167 0 -275 65.5t-163 158.5l119 75q47 -72 116.5 -120t187.5 -48t172 55.5t54 136.5t-53 129t-152 91l-217 98
q-147 66 -214.5 144t-67.5 194q0 179 180 262q-57 82 -57 176q0 168 105 264.5t258 96.5q152 0 244.5 -62.5t139.5 -150.5l-119 -74q-89 156 -252 156q-104 0 -163.5 -58.5t-59.5 -149.5zM330 801q-111 -53 -111 -183q0 -68 48 -116.5t151 -93.5l219 -99q95 -40 149 -90
q127 50 127 164q0 76 -50 125t-161 98l-223 101q-91 38 -149 94z" />
    <glyph glyph-name="dieresis" unicode="&#xa8;" horiz-adv-x="1024" 
d="M690 1057q-37 0 -66.5 27.5t-29.5 67.5t29.5 66.5t66.5 26.5t65.5 -26.5t28.5 -66.5t-28.5 -67.5t-65.5 -27.5zM335 1057q-38 0 -66.5 27.5t-28.5 67.5t28.5 66.5t66.5 26.5t66.5 -26.5t28.5 -66.5t-28.5 -67.5t-66.5 -27.5z" />
    <glyph glyph-name="copyright" unicode="&#xa9;" horiz-adv-x="1609" 
d="M804 -16q-144 0 -273.5 53t-227.5 148.5t-155.5 226.5t-57.5 284.5t57.5 284.5t210 279.5t447.5 148.5q143 0 273 -53t228.5 -148.5t156 -226.5t57.5 -284.5t-57.5 -284.5t-156 -226.5t-228.5 -148.5t-274 -53zM805 66q129 0 243.5 47t199.5 131t134.5 199.5t49.5 253
t-49.5 253t-134.5 199.5t-199.5 131t-243.5 47t-244 -47t-200 -131t-134 -199.5t-49 -253t49 -253t134 -199.5t200 -131t244 -47zM815 256q-184 0 -312 124.5t-128 312.5t127 315t309 127q231 0 344 -166l-102 -80q-84 119 -224 119q-139 0 -226 -87t-87 -224t86.5 -225.5
t228.5 -88.5t234 123l102 -74q-119 -176 -352 -176z" />
    <glyph glyph-name="ordfeminine" unicode="&#xaa;" horiz-adv-x="823" 
d="M350 659q-116 0 -193 57t-77 165.5t80.5 165.5t204.5 57h217q0 113 -47 153.5t-125 40.5q-119 0 -203 -102l-82 72q41 59 114.5 100t159.5 41q316 0 316 -301v-432h-133l2 94q-76 -111 -234 -111zM379 1004q-166 0 -166 -119t168 -119q84 0 142.5 41t58.5 115v82h-203z
" />
    <glyph glyph-name="guillemotleft" unicode="&#xab;" horiz-adv-x="813" 
d="M395 401v17l193 321h147l-196 -329l196 -334h-147zM78 401v17l192 321h148l-197 -329l197 -334h-148z" />
    <glyph glyph-name="logicalnot" unicode="&#xac;" 
d="M208 387q-44 0 -78 33t-34 80t34 78.5t78 31.5t76.5 -31.5t32.5 -78.5t-32.5 -80t-76.5 -33z" />
    <glyph glyph-name="registered" unicode="&#xae;" horiz-adv-x="1052" 
d="M206.5 667.5q-128.5 124.5 -128.5 314.5t128.5 314.5t317 124.5t320 -125t131.5 -314t-131.5 -314t-320 -125t-317 124.5zM786.5 1249q-106.5 101 -263.5 101q-158 0 -259.5 -101.5t-101.5 -268t102 -266.5t259 -100q156 0 263 99.5t107 267t-106.5 268.5zM516 860h-61
v-119h-90v486h149q106 0 157.5 -55.5t51.5 -117.5q0 -125 -96 -169l96 -144h-98l-80 121q-8 -2 -29 -2zM514 932q119 0 119 108q0 49 -27.5 80t-91.5 31h-59v-219h59z" />
    <glyph glyph-name="macron" unicode="&#xaf;" horiz-adv-x="1024" 
d="M297 1174h430v-113h-430v113z" />
    <glyph glyph-name="macron" unicode="&#x2c9;" horiz-adv-x="1024" 
d="M297 1174h430v-113h-430v113z" />
    <glyph glyph-name="degree" unicode="&#xb0;" horiz-adv-x="751" 
d="M178 1331q82 78 200 78t197.5 -78.5t79.5 -193t-80 -193t-197 -78.5q-118 0 -200 78t-82 193.5t82 193.5zM377 969q74 0 119 48t45 121t-45 121t-119 48t-119 -48.5t-45 -120.5t45 -120.5t119 -48.5z" />
    <glyph glyph-name="twosuperior" unicode="&#xb2;" 
d="M208 387q-44 0 -78 33t-34 80t34 78.5t78 31.5t76.5 -31.5t32.5 -78.5t-32.5 -80t-76.5 -33z" />
    <glyph glyph-name="threesuperior" unicode="&#xb3;" 
d="M208 387q-44 0 -78 33t-34 80t34 78.5t78 31.5t76.5 -31.5t32.5 -78.5t-32.5 -80t-76.5 -33z" />
    <glyph glyph-name="acute" unicode="&#xb4;" horiz-adv-x="1024" 
d="M592 1415h164l-191 -395h-112z" />
    <glyph glyph-name="mu" unicode="&#xb5;" 
d="M208 387q-44 0 -78 33t-34 80t34 78.5t78 31.5t76.5 -31.5t32.5 -78.5t-32.5 -80t-76.5 -33z" />
    <glyph glyph-name="mu" unicode="&#x3bc;" 
d="M208 387q-44 0 -78 33t-34 80t34 78.5t78 31.5t76.5 -31.5t32.5 -78.5t-32.5 -80t-76.5 -33z" />
    <glyph glyph-name="paragraph" unicode="&#xb6;" horiz-adv-x="1280" 
d="M639 623h-131q-188 0 -296 110t-108 272t109 275t295 113h582v-1393h-142v1266h-164v-1266h-145v623zM639 748v518h-129q-117 0 -182.5 -71t-65.5 -187.5t65.5 -188t182.5 -71.5h129z" />
    <glyph glyph-name="periodcentered" unicode="&#xb7;" horiz-adv-x="413" 
d="M208 387q-44 0 -78 33t-34 80t34 78.5t78 31.5t76.5 -31.5t32.5 -78.5t-32.5 -80t-76.5 -33z" />
    <glyph glyph-name="periodcentered" unicode="&#x2219;" horiz-adv-x="413" 
d="M208 387q-44 0 -78 33t-34 80t34 78.5t78 31.5t76.5 -31.5t32.5 -78.5t-32.5 -80t-76.5 -33z" />
    <glyph glyph-name="cedilla" unicode="&#xb8;" horiz-adv-x="1024" 
d="M511 -379q42 0 69.5 22.5t27.5 66.5t-26.5 72t-81.5 28h-45v190h98v-109q66 -10 117 -57t51 -130t-58.5 -131t-138.5 -48t-131 36t-76 85l89 51q18 -31 40.5 -53.5t64.5 -22.5z" />
    <glyph glyph-name="onesuperior" unicode="&#xb9;" 
d="M208 387q-44 0 -78 33t-34 80t34 78.5t78 31.5t76.5 -31.5t32.5 -78.5t-32.5 -80t-76.5 -33z" />
    <glyph glyph-name="ordmasculine" unicode="&#xba;" horiz-adv-x="929" 
d="M465 659q-78 0 -147.5 29t-121 79t-81 118.5t-29.5 148.5t29.5 148.5t81 119t121 79t147.5 28.5t147.5 -28.5t120.5 -79t81 -119t30 -148.5t-30 -148.5t-81 -118.5t-120.5 -79t-147.5 -29zM464.5 772q110.5 0 177.5 73t67 189t-67 188t-177.5 72t-176 -72.5t-65.5 -188.5
t65.5 -188.5t176 -72.5z" />
    <glyph glyph-name="guillemotright" unicode="&#xbb;" horiz-adv-x="813" 
d="M592 408l-197 331h148l192 -323v-17l-192 -323h-148zM274 408l-196 331h147l193 -323v-17l-193 -323h-147z" />
    <glyph glyph-name="onequarter" unicode="&#xbc;" 
d="M208 387q-44 0 -78 33t-34 80t34 78.5t78 31.5t76.5 -31.5t32.5 -78.5t-32.5 -80t-76.5 -33z" />
    <glyph glyph-name="onehalf" unicode="&#xbd;" 
d="M208 387q-44 0 -78 33t-34 80t34 78.5t78 31.5t76.5 -31.5t32.5 -78.5t-32.5 -80t-76.5 -33z" />
    <glyph glyph-name="threequarters" unicode="&#xbe;" 
d="M208 387q-44 0 -78 33t-34 80t34 78.5t78 31.5t76.5 -31.5t32.5 -78.5t-32.5 -80t-76.5 -33z" />
    <glyph glyph-name="questiondown" unicode="&#xbf;" horiz-adv-x="960" 
d="M539 1407q43 0 75.5 -30.5t32.5 -78t-32.5 -79t-75.5 -31.5t-76 31.5t-33 79t33 78t76 30.5zM604 649h-67q-133 0 -210 -78.5t-77 -198.5t70 -189.5t180 -69.5t174.5 44t111.5 136l119 -62q-51 -123 -154 -185t-219 -62q-206 0 -318 107.5t-112 275.5t101.5 275.5
t265.5 119.5v248h135v-361z" />
    <glyph glyph-name="Agrave" unicode="&#xc0;" horiz-adv-x="1343" 
d="M422 1937h164l139 -395h-113zM653 1407h25l590 -1407h-156l-94 233h-705l-92 -233h-145zM965 360l-246 619q-10 25 -13 32l-24 74q-8 29 -16 60q-10 -31 -27 -85t-29 -81l-245 -619h600z" />
    <glyph glyph-name="Aacute" unicode="&#xc1;" horiz-adv-x="1343" 
d="M752 1937h163l-190 -395h-113zM653 1407h25l590 -1407h-156l-94 233h-705l-92 -233h-145zM965 360l-246 619q-10 25 -13 32l-24 74q-8 29 -16 60q-10 -31 -27 -85t-29 -81l-245 -619h600z" />
    <glyph glyph-name="Acircumflex" unicode="&#xc2;" horiz-adv-x="1343" 
d="M655 1933h19l262 -395h-125l-145 203l-148 -203h-125zM653 1407h25l590 -1407h-156l-94 233h-705l-92 -233h-145zM965 360l-246 619q-10 25 -13 32l-24 74q-8 29 -16 60q-10 -31 -27 -85t-29 -81l-245 -619h600z" />
    <glyph glyph-name="Atilde" unicode="&#xc3;" horiz-adv-x="1343" 
d="M545 1767q43 0 74.5 -18t68.5 -50t54.5 -43t41.5 -11q61 0 74 118l107 -10q-6 -111 -52.5 -168t-124.5 -57q-43 0 -74.5 19t-68.5 51t-54.5 43.5t-41.5 11.5q-63 0 -76 -121l-106 8q6 111 54 169t124 58zM653 1407h25l590 -1407h-156l-94 233h-705l-92 -233h-145z
M965 360l-246 619q-10 25 -13 32l-24 74q-8 29 -16 60q-10 -31 -27 -85t-29 -81l-245 -619h600z" />
    <glyph glyph-name="Adieresis" unicode="&#xc4;" horiz-adv-x="1343" 
d="M848 1579q-37 0 -66.5 27.5t-29.5 67.5t29.5 66.5t66.5 26.5t65.5 -26.5t28.5 -66.5t-28.5 -67.5t-65.5 -27.5zM493 1579q-38 0 -67 27.5t-29 67.5t29 66.5t67 26.5t66.5 -26.5t28.5 -66.5t-28.5 -67.5t-66.5 -27.5zM653 1407h25l590 -1407h-156l-94 233h-705l-92 -233
h-145zM965 360l-246 619q-10 25 -13 32l-24 74q-8 29 -16 60q-10 -31 -27 -85t-29 -81l-245 -619h600z" />
    <glyph glyph-name="Aring" unicode="&#xc5;" horiz-adv-x="1343" 
d="M670 1489q-92 0 -153.5 59.5t-61.5 146.5t63.5 146.5t151.5 59.5t151.5 -60t63.5 -147q0 -86 -61.5 -145.5t-153.5 -59.5zM653 1407h25l590 -1407h-156l-94 233h-705l-92 -233h-145zM670 1581q47 0 76.5 30.5t29.5 82.5t-29.5 82t-76.5 30t-77 -29.5t-30 -81.5t30 -83
t77 -31zM965 360l-246 619q-10 25 -13 32l-24 74q-8 29 -16 60q-10 -31 -27 -85t-29 -81l-245 -619h600z" />
    <glyph glyph-name="AE" unicode="&#xc6;" horiz-adv-x="1951" 
d="M1802 1393v-131h-698v-654h622v-129h-622v-348h727v-131h-877v233h-585l-156 -233h-158l930 1393h817zM954 365v630q0 60 15 172q-11 -27 -25 -51t-28.5 -52t-30.5 -50l-428 -649h497z" />
    <glyph glyph-name="Ccedilla" unicode="&#xc7;" horiz-adv-x="1486" 
d="M825 -16v-93q66 -10 117 -57t51 -129q0 -126 -79.5 -153t-137.5 -27t-110 36t-76 85l88 51q18 -31 40.5 -53.5t64.5 -22.5t70 22.5t28 66.5t-27 72t-82 28h-45v180q-265 32 -440.5 226.5t-175.5 492.5t152.5 447t283.5 201t278 52q373 0 553 -270l-112 -82
q-68 100 -178 159.5t-248 59.5t-240 -44t-177 -122t-117 -183.5t-42 -292.5t159.5 -352t401.5 -165q298 0 459 233l115 -80q-92 -135 -238.5 -210.5t-335.5 -75.5z" />
    <glyph glyph-name="Egrave" unicode="&#xc8;" horiz-adv-x="1187" 
d="M385 1937h164l139 -395h-113zM190 1393h848v-131h-700v-654h625v-129h-625v-348h729v-131h-877v1393z" />
    <glyph glyph-name="Eacute" unicode="&#xc9;" horiz-adv-x="1187" 
d="M690 1937h164l-190 -395h-113zM190 1393h848v-131h-700v-654h625v-129h-625v-348h729v-131h-877v1393z" />
    <glyph glyph-name="Ecircumflex" unicode="&#xca;" horiz-adv-x="1187" 
d="M614 1933h19l262 -395h-125l-145 203l-148 -203h-125zM190 1393h848v-131h-700v-654h625v-129h-625v-348h729v-131h-877v1393z" />
    <glyph glyph-name="Edieresis" unicode="&#xcb;" horiz-adv-x="1187" 
d="M801 1579q-37 0 -66.5 27.5t-29.5 67.5t29.5 66.5t66.5 26.5t65.5 -26.5t28.5 -66.5t-28.5 -67.5t-65.5 -27.5zM445 1579q-38 0 -66.5 27.5t-28.5 67.5t29 66.5t67 26.5t66.5 -26.5t28.5 -66.5t-29 -67.5t-67 -27.5zM190 1393h848v-131h-700v-654h625v-129h-625v-348h729
v-131h-877v1393z" />
    <glyph glyph-name="Igrave" unicode="&#xcc;" horiz-adv-x="542" 
d="M20 1937h164l140 -395h-113zM197 1393h149v-1393h-149v1393z" />
    <glyph glyph-name="Iacute" unicode="&#xcd;" horiz-adv-x="542" 
d="M356 1937h164l-190 -395h-113zM197 1393h149v-1393h-149v1393z" />
    <glyph glyph-name="Icircumflex" unicode="&#xce;" horiz-adv-x="542" 
d="M260 1933h19l262 -395h-125l-146 203l-147 -203h-125zM197 1393h149v-1393h-149v1393z" />
    <glyph glyph-name="Idieresis" unicode="&#xcf;" horiz-adv-x="542" 
d="M448.5 1579q-36.5 0 -66.5 27.5t-30 67.5t30 66.5t66.5 26.5t65.5 -26.5t29 -66.5t-29 -67.5t-65.5 -27.5zM93 1579q-38 0 -66.5 27.5t-28.5 67.5t28.5 66.5t66.5 26.5t66.5 -26.5t28.5 -66.5t-28.5 -67.5t-66.5 -27.5zM197 1393h149v-1393h-149v1393z" />
    <glyph glyph-name="Eth" unicode="&#xd0;" horiz-adv-x="1392" 
d="M190 496h-161v129h161v768h355q334 0 535.5 -192t201.5 -503.5t-199 -504.5t-538 -193h-355v496zM535 133q289 0 440 153t151 410.5t-151 410.5t-440 153h-197v-635h375v-129h-375v-363h197z" />
    <glyph glyph-name="Ntilde" unicode="&#xd1;" horiz-adv-x="1460" 
d="M608 1767q43 0 75 -18t69 -50t54 -43t42 -11q61 0 74 118l106 -10q-6 -111 -52 -168t-124 -57q-43 0 -75.5 19t-68.5 51t-53.5 43.5t-42.5 11.5q-63 0 -75 -121l-107 8q6 111 54 169t124 58zM1133 453v940h137v-1407h-25l-831 983q-19 19 -97 129q1 -29 7 -71t6 -87v-940
h-140v1407h25l832 -983q14 -18 31.5 -40t32.5 -44t32 -45q-10 72 -10 158z" />
    <glyph glyph-name="Ograve" unicode="&#xd2;" horiz-adv-x="1652" 
d="M582 1937h163l140 -395h-113zM826 -16q-148 0 -279 52t-227.5 146t-152.5 225.5t-56 289t56 288.5t152.5 225.5t227.5 146.5t279 52t278.5 -52t228 -146.5t153.5 -225.5t56 -288.5t-56 -289t-153.5 -225.5t-228 -146t-278.5 -52zM1228 1111q-161 165 -403 165
t-401.5 -165.5t-159.5 -414.5t159.5 -414t402.5 -165q241 0 402 164.5t161 414.5t-161 415z" />
    <glyph glyph-name="Oacute" unicode="&#xd3;" horiz-adv-x="1652" 
d="M905 1937h164l-190 -395h-113zM826 -16q-148 0 -279 52t-227.5 146t-152.5 225.5t-56 289t56 288.5t152.5 225.5t227.5 146.5t279 52t278.5 -52t228 -146.5t153.5 -225.5t56 -288.5t-56 -289t-153.5 -225.5t-228 -146t-278.5 -52zM1228 1111q-161 165 -403 165
t-401.5 -165.5t-159.5 -414.5t159.5 -414t402.5 -165q241 0 402 164.5t161 414.5t-161 415z" />
    <glyph glyph-name="Ocircumflex" unicode="&#xd4;" horiz-adv-x="1652" 
d="M815 1933h19l262 -395h-125l-146 203l-147 -203h-125zM826 -16q-148 0 -279 52t-227.5 146t-152.5 225.5t-56 289t56 288.5t152.5 225.5t227.5 146.5t279 52t278.5 -52t228 -146.5t153.5 -225.5t56 -288.5t-56 -289t-153.5 -225.5t-228 -146t-278.5 -52zM1228 1111
q-161 165 -403 165t-401.5 -165.5t-159.5 -414.5t159.5 -414t402.5 -165q241 0 402 164.5t161 414.5t-161 415z" />
    <glyph glyph-name="Otilde" unicode="&#xd5;" horiz-adv-x="1652" 
d="M705 1767q43 0 74.5 -18t68.5 -50t54.5 -43t41.5 -11q61 0 74 118l106 -10q-6 -111 -52 -168t-124 -57q-43 0 -74.5 19t-68.5 51t-54.5 43.5t-41.5 11.5q-63 0 -76 -121l-107 8q6 111 54.5 169t124.5 58zM826 -16q-148 0 -279 52t-227.5 146t-152.5 225.5t-56 289
t56 288.5t152.5 225.5t227.5 146.5t279 52t278.5 -52t228 -146.5t153.5 -225.5t56 -288.5t-56 -289t-153.5 -225.5t-228 -146t-278.5 -52zM1228 1111q-161 165 -403 165t-401.5 -165.5t-159.5 -414.5t159.5 -414t402.5 -165q241 0 402 164.5t161 414.5t-161 415z" />
    <glyph glyph-name="Odieresis" unicode="&#xd6;" horiz-adv-x="1652" 
d="M1003.5 1579q-36.5 0 -66.5 27.5t-30 67.5t30 66.5t66.5 26.5t65.5 -26.5t29 -66.5t-29 -67.5t-65.5 -27.5zM648 1579q-38 0 -66.5 27.5t-28.5 67.5t28.5 66.5t66.5 26.5t66.5 -26.5t28.5 -66.5t-28.5 -67.5t-66.5 -27.5zM826 -16q-148 0 -279 52t-227.5 146
t-152.5 225.5t-56 289t56 288.5t152.5 225.5t227.5 146.5t279 52t278.5 -52t228 -146.5t153.5 -225.5t56 -288.5t-56 -289t-153.5 -225.5t-228 -146t-278.5 -52zM1228 1111q-161 165 -403 165t-401.5 -165.5t-159.5 -414.5t159.5 -414t402.5 -165q241 0 402 164.5t161 414.5
t-161 415z" />
    <glyph glyph-name="multiply" unicode="&#xd7;" 
d="M208 387q-44 0 -78 33t-34 80t34 78.5t78 31.5t76.5 -31.5t32.5 -78.5t-32.5 -80t-76.5 -33z" />
    <glyph glyph-name="Oslash" unicode="&#xd8;" horiz-adv-x="1652" 
d="M1542 696q0 -312 -207.5 -512t-491.5 -200t-481 159l-163 -163l-93 90l166 163q-161 195 -161 463q0 310 152.5 459.5t283.5 201.5t278 52q270 0 465 -162l164 164l90 -90l-164 -162q162 -196 162 -463zM1188 1147q-152 129 -379 129t-386 -165.5t-159 -414.5
q0 -200 113 -358q227 225 405 403zM1389 696q0 201 -113 359l-811 -811q155 -127 360 -127q242 0 403 164.5t161 414.5z" />
    <glyph glyph-name="Ugrave" unicode="&#xd9;" horiz-adv-x="1355" 
d="M434 1937h164l139 -395h-112zM178 475v918h148v-908q0 -186 94 -278t257 -92t258 92t95 278v908h148v-918q0 -238 -139 -364.5t-361 -126.5t-361 126.5t-139 364.5z" />
    <glyph glyph-name="Uacute" unicode="&#xda;" horiz-adv-x="1355" 
d="M758 1937h164l-191 -395h-113zM178 475v918h148v-908q0 -186 94 -278t257 -92t258 92t95 278v908h148v-918q0 -238 -139 -364.5t-361 -126.5t-361 126.5t-139 364.5z" />
    <glyph glyph-name="Ucircumflex" unicode="&#xdb;" horiz-adv-x="1355" 
d="M668 1933h18l262 -395h-125l-145 203l-148 -203h-124zM178 475v918h148v-908q0 -186 94 -278t257 -92t258 92t95 278v908h148v-918q0 -238 -139 -364.5t-361 -126.5t-361 126.5t-139 364.5z" />
    <glyph glyph-name="Udieresis" unicode="&#xdc;" horiz-adv-x="1355" 
d="M856 1579q-37 0 -66.5 27.5t-29.5 67.5t29.5 66.5t66.5 26.5t65.5 -26.5t28.5 -66.5t-28.5 -67.5t-65.5 -27.5zM501 1579q-38 0 -66.5 27.5t-28.5 67.5t28.5 66.5t66.5 26.5t66.5 -26.5t28.5 -66.5t-28.5 -67.5t-66.5 -27.5zM178 475v918h148v-908q0 -186 94 -278
t257 -92t258 92t95 278v908h148v-918q0 -238 -139 -364.5t-361 -126.5t-361 126.5t-139 364.5z" />
    <glyph glyph-name="Yacute" unicode="&#xdd;" horiz-adv-x="1343" 
d="M752 1937h163l-190 -395h-113zM754 0h-152v436l-526 957h166l379 -693q27 -53 38 -84t21 -57q17 55 33 87t26 54l377 693h154l-516 -951v-442z" />
    <glyph glyph-name="Thorn" unicode="&#xde;" horiz-adv-x="1196" 
d="M190 1393h148v-162h180q271 0 417 -144.5t146 -381.5q0 -236 -146.5 -379.5t-416.5 -143.5h-180v-182h-148v1393zM510 313q323 0 370.5 154t47.5 288t-100.5 239.5t-317.5 105.5h-172v-787h172z" />
    <glyph glyph-name="germandbls" unicode="&#xdf;" horiz-adv-x="1101" 
d="M1034 236q0 -252 -316 -252q-100 0 -183.5 55t-120.5 135l100 66q66 -140 221 -140q78 0 120 35t42 81q0 77 -45 111t-120 60q-134 47 -194.5 101.5t-60.5 139.5t47 197l99 240q34 83 34 161q0 77 -47 117.5t-128 40.5t-134 -58t-53 -198v-1128h-143v1130
q0 190 94.5 282.5t238.5 92.5q205 0 256.5 -105.5t51.5 -183.5t-48 -192l-96 -233q-35 -90 -35 -139.5t35.5 -79.5t107.5 -55q142 -50 209.5 -113.5t67.5 -167.5z" />
    <glyph glyph-name="agrave" unicode="&#xe0;" horiz-adv-x="1122" 
d="M264 1415h164l139 -395h-112zM506 866q223 0 323 -200l-4 182h144v-848h-144l4 182q-43 -86 -125 -142t-184 -56q-188 0 -305 126.5t-117 316.5q0 189 117.5 314t290.5 125zM248 425q0 -138 76 -227t211 -89t214.5 89.5t79.5 224t-79.5 225.5t-214.5 91t-211 -88
t-76 -226z" />
    <glyph glyph-name="aacute" unicode="&#xe1;" horiz-adv-x="1122" 
d="M596 1415h164l-191 -395h-112zM506 866q223 0 323 -200l-4 182h144v-848h-144l4 182q-43 -86 -125 -142t-184 -56q-188 0 -305 126.5t-117 316.5q0 189 117.5 314t290.5 125zM248 425q0 -138 76 -227t211 -89t214.5 89.5t79.5 224t-79.5 225.5t-214.5 91t-211 -88
t-76 -226z" />
    <glyph glyph-name="acircumflex" unicode="&#xe2;" horiz-adv-x="1122" 
d="M532 1411h19l262 -395h-125l-145 203l-148 -203h-125zM506 866q223 0 323 -200l-4 182h144v-848h-144l4 182q-43 -86 -125 -142t-184 -56q-188 0 -305 126.5t-117 316.5q0 189 117.5 314t290.5 125zM248 425q0 -138 76 -227t211 -89t214.5 89.5t79.5 224t-79.5 225.5
t-214.5 91t-211 -88t-76 -226z" />
    <glyph glyph-name="atilde" unicode="&#xe3;" horiz-adv-x="1122" 
d="M414 1245q43 0 74.5 -18.5t68.5 -50.5t54.5 -43t41.5 -11q61 0 74 119l107 -10q-6 -111 -52.5 -168t-124.5 -57q-43 0 -74.5 19t-68.5 51t-54.5 43t-41.5 11q-63 0 -76 -120l-106 8q6 111 54 169t124 58zM506 866q223 0 323 -200l-4 182h144v-848h-144l4 182
q-43 -86 -125 -142t-184 -56q-188 0 -305 126.5t-117 316.5q0 189 117.5 314t290.5 125zM248 425q0 -138 76 -227t211 -89t214.5 89.5t79.5 224t-79.5 225.5t-214.5 91t-211 -88t-76 -226z" />
    <glyph glyph-name="adieresis" unicode="&#xe4;" horiz-adv-x="1122" 
d="M713 1057q-37 0 -67 27.5t-30 67.5t30 66.5t67 26.5t65.5 -26.5t28.5 -66.5t-28.5 -67.5t-65.5 -27.5zM357 1057q-38 0 -66.5 27.5t-28.5 67.5t28.5 66.5t66.5 26.5t67 -26.5t29 -66.5t-29 -67.5t-67 -27.5zM506 866q223 0 323 -200l-4 182h144v-848h-144l4 182
q-43 -86 -125 -142t-184 -56q-188 0 -305 126.5t-117 316.5q0 189 117.5 314t290.5 125zM248 425q0 -138 76 -227t211 -89t214.5 89.5t79.5 224t-79.5 225.5t-214.5 91t-211 -88t-76 -226z" />
    <glyph glyph-name="aring" unicode="&#xe5;" horiz-adv-x="1122" 
d="M524 991q-92 0 -153.5 59.5t-61.5 146.5t63.5 146.5t151 59.5t151.5 -58.5t64 -146.5t-61.5 -147.5t-153.5 -59.5zM506 866q223 0 323 -200l-4 182h144v-848h-144l4 182q-43 -86 -125 -142t-184 -56q-188 0 -305 126.5t-117 316.5q0 189 117.5 314t290.5 125zM524 1083
q47 0 77 31t30 83t-30 82t-77 30t-76.5 -30t-29.5 -82t29.5 -83t76.5 -31zM248 425q0 -138 76 -227t211 -89t214.5 89.5t79.5 224t-79.5 225.5t-214.5 91t-211 -88t-76 -226z" />
    <glyph glyph-name="ae" unicode="&#xe6;" horiz-adv-x="1636" 
d="M182 428.5q90 63.5 232 63.5h264v24q0 125 -52.5 177t-146.5 52q-154 0 -248 -122l-88 79q119 164 346 164q104 0 176 -50t105 -142q53 82 141.5 137t196.5 55q208 0 323 -134t111 -347h-723q12 -123 93 -202t235 -79t258 113l86 -86q-131 -147 -354 -147
q-131 0 -225.5 53t-147.5 145q-30 -95 -126.5 -146.5t-192.5 -51.5q-95 0 -155.5 15t-129 65t-68.5 175.5t90 189zM1120 745q-125 0 -201.5 -71.5t-95.5 -181.5h574q-9 106 -80.5 179.5t-196.5 73.5zM424 385q-193 0 -193 -139q0 -145 205 -146q99 0 170.5 51t71.5 132v102
h-254z" />
    <glyph glyph-name="ccedilla" unicode="&#xe7;" horiz-adv-x="956" 
d="M660 -166q51 -47 51 -130t-58.5 -131t-138.5 -48t-131 36t-76 85l88 51q18 -31 41 -53.5t65 -22.5t69.5 22.5t27.5 66.5t-26.5 72t-82.5 28h-45v184q-151 28 -248.5 150t-97.5 293t126.5 300t324.5 129t323 -151l-102 -84q-83 108 -225 108t-220.5 -90t-78.5 -225
t78.5 -225t220.5 -90t237 110l99 -84q-124 -151 -338 -151v-93q66 -10 117 -57z" />
    <glyph glyph-name="egrave" unicode="&#xe8;" horiz-adv-x="1056" 
d="M291 1415h164l139 -395h-113zM913 131q-131 -147 -347 -147t-342 126t-126 312t125 315t321 129t311.5 -138t107.5 -351h-721q14 -123 94 -198t235 -75t254 113zM537 745q-123 0 -200 -71.5t-93 -188.5h575q-13 180 -114 220t-168 40z" />
    <glyph glyph-name="eacute" unicode="&#xe9;" horiz-adv-x="1056" 
d="M608 1415h164l-190 -395h-113zM913 131q-131 -147 -347 -147t-342 126t-126 312t125 315t321 129t311.5 -138t107.5 -351h-721q14 -123 94 -198t235 -75t254 113zM537 745q-123 0 -200 -71.5t-93 -188.5h575q-13 180 -114 220t-168 40z" />
    <glyph glyph-name="ecircumflex" unicode="&#xea;" horiz-adv-x="1056" 
d="M518 1411h19l262 -395h-125l-146 203l-147 -203h-125zM913 131q-131 -147 -347 -147t-342 126t-126 312t125 315t321 129t311.5 -138t107.5 -351h-721q14 -123 94 -198t235 -75t254 113zM537 745q-123 0 -200 -71.5t-93 -188.5h575q-13 180 -114 220t-168 40z" />
    <glyph glyph-name="edieresis" unicode="&#xeb;" horiz-adv-x="1056" 
d="M706.5 1057q-36.5 0 -66.5 27.5t-30 67.5t30 66.5t66.5 26.5t65.5 -26.5t29 -66.5t-29 -67.5t-65.5 -27.5zM351 1057q-38 0 -66.5 27.5t-28.5 67.5t28.5 66.5t66.5 26.5t66.5 -26.5t28.5 -66.5t-28.5 -67.5t-66.5 -27.5zM913 131q-131 -147 -347 -147t-342 126t-126 312
t125 315t321 129t311.5 -138t107.5 -351h-721q14 -123 94 -198t235 -75t254 113zM537 745q-123 0 -200 -71.5t-93 -188.5h575q-13 180 -114 220t-168 40z" />
    <glyph glyph-name="igrave" unicode="&#xec;" horiz-adv-x="454" 
d="M-20 1415h163l140 -395h-113zM156 848h143v-848h-143v848z" />
    <glyph glyph-name="iacute" unicode="&#xed;" horiz-adv-x="454" 
d="M305 1415h164l-190 -395h-113zM156 848h143v-848h-143v848z" />
    <glyph glyph-name="icircumflex" unicode="&#xee;" horiz-adv-x="454" 
d="M217 1411h19l262 -395h-125l-146 203l-147 -203h-125zM156 848h143v-848h-143v848z" />
    <glyph glyph-name="idieresis" unicode="&#xef;" horiz-adv-x="454" 
d="M405.5 1057q-36.5 0 -66.5 27.5t-30 67.5t30 66.5t66.5 26.5t65.5 -26.5t29 -66.5t-29 -67.5t-65.5 -27.5zM50 1057q-38 0 -66.5 27.5t-28.5 67.5t28.5 66.5t66.5 26.5t66.5 -26.5t28.5 -66.5t-28.5 -67.5t-66.5 -27.5zM156 848h143v-848h-143v848z" />
    <glyph glyph-name="eth" unicode="&#xf0;" horiz-adv-x="1093" 
d="M659 1270q336 -397 336 -824q0 -199 -127.5 -330.5t-318.5 -131.5q-192 0 -321.5 127.5t-129.5 312.5q0 186 128 314t307 128t276 -133q-61 224 -244 445l-137 -134l-72 72l144 139q-82 94 -172 168l80 88q108 -88 182 -165l137 135l76 -74zM850 430q0 138 -84.5 224.5
t-218.5 86.5t-218.5 -90.5t-84.5 -226.5t85 -227t219 -91t218 93t84 231z" />
    <glyph glyph-name="ntilde" unicode="&#xf1;" horiz-adv-x="1056" 
d="M401 1245q43 0 75 -18.5t69 -50.5t54 -43t42 -11q61 0 74 119l106 -10q-6 -111 -52 -168t-124 -57q-43 0 -74.5 19t-68.5 51t-54.5 43t-41.5 11q-63 0 -76 -120l-107 8q6 111 54.5 169t123.5 58zM770 500q0 235 -211 235q-119 0 -191.5 -70.5t-72.5 -197.5v-467h-143v848
h143l-4 -174q41 92 121 142t184 50q141 0 229 -92t88 -258v-516h-143v500z" />
    <glyph glyph-name="ograve" unicode="&#xf2;" horiz-adv-x="1093" 
d="M301 1415h164l139 -395h-112zM227 737q129 129 322 129t319.5 -129t126.5 -313.5t-127.5 -312t-318.5 -127.5t-321 127.5t-130 312t129 313.5zM548.5 106q67.5 0 123 24t95.5 67t61.5 101t21.5 126t-21.5 126t-61.5 101t-95.5 66.5t-123 23.5t-123.5 -23.5t-96 -66.5
t-62.5 -101t-22.5 -126t22.5 -126t62.5 -101t96 -67t123.5 -24z" />
    <glyph glyph-name="oacute" unicode="&#xf3;" horiz-adv-x="1093" 
d="M629 1415h164l-191 -395h-113zM227 737q129 129 322 129t319.5 -129t126.5 -313.5t-127.5 -312t-318.5 -127.5t-321 127.5t-130 312t129 313.5zM548.5 106q67.5 0 123 24t95.5 67t61.5 101t21.5 126t-21.5 126t-61.5 101t-95.5 66.5t-123 23.5t-123.5 -23.5t-96 -66.5
t-62.5 -101t-22.5 -126t22.5 -126t62.5 -101t96 -67t123.5 -24z" />
    <glyph glyph-name="ocircumflex" unicode="&#xf4;" horiz-adv-x="1093" 
d="M537 1411h18l262 -395h-125l-145 203l-148 -203h-125zM227 737q129 129 322 129t319.5 -129t126.5 -313.5t-127.5 -312t-318.5 -127.5t-321 127.5t-130 312t129 313.5zM548.5 106q67.5 0 123 24t95.5 67t61.5 101t21.5 126t-21.5 126t-61.5 101t-95.5 66.5t-123 23.5
t-123.5 -23.5t-96 -66.5t-62.5 -101t-22.5 -126t22.5 -126t62.5 -101t96 -67t123.5 -24z" />
    <glyph glyph-name="otilde" unicode="&#xf5;" horiz-adv-x="1093" 
d="M426 1245q43 0 74.5 -18.5t68.5 -50.5t54.5 -43t42.5 -11q61 0 73 119l107 -10q-6 -111 -52 -168t-124 -57q-43 0 -75 19t-69 51t-54 43t-42 11q-63 0 -76 -120l-106 8q6 111 54 169t124 58zM227 737q129 129 322 129t319.5 -129t126.5 -313.5t-127.5 -312t-318.5 -127.5
t-321 127.5t-130 312t129 313.5zM548.5 106q67.5 0 123 24t95.5 67t61.5 101t21.5 126t-21.5 126t-61.5 101t-95.5 66.5t-123 23.5t-123.5 -23.5t-96 -66.5t-62.5 -101t-22.5 -126t22.5 -126t62.5 -101t96 -67t123.5 -24z" />
    <glyph glyph-name="odieresis" unicode="&#xf6;" horiz-adv-x="1093" 
d="M725 1057q-37 0 -66.5 27.5t-29.5 67.5t29.5 66.5t66.5 26.5t65.5 -26.5t28.5 -66.5t-28.5 -67.5t-65.5 -27.5zM370 1057q-38 0 -67 27.5t-29 67.5t29 66.5t67 26.5t66.5 -26.5t28.5 -66.5t-28.5 -67.5t-66.5 -27.5zM227 737q129 129 322 129t319.5 -129t126.5 -313.5
t-127.5 -312t-318.5 -127.5t-321 127.5t-130 312t129 313.5zM548.5 106q67.5 0 123 24t95.5 67t61.5 101t21.5 126t-21.5 126t-61.5 101t-95.5 66.5t-123 23.5t-123.5 -23.5t-96 -66.5t-62.5 -101t-22.5 -126t22.5 -126t62.5 -101t96 -67t123.5 -24z" />
    <glyph glyph-name="divide" unicode="&#xf7;" 
d="M208 387q-44 0 -78 33t-34 80t34 78.5t78 31.5t76.5 -31.5t32.5 -78.5t-32.5 -80t-76.5 -33z" />
    <glyph glyph-name="oslash" unicode="&#xf8;" horiz-adv-x="1093" 
d="M995 424q0 -185 -127.5 -312.5t-304.5 -127.5t-305 102l-119 -111l-71 76l118 109q-88 118 -88 264q0 184 129 313t306 129t303 -102l116 106l72 -75l-115 -107q86 -115 86 -264zM240 446q0 -116 43 -196l460 426q-80 68 -206 68t-211.5 -91t-85.5 -207zM854 405
q0 119 -43 191l-461 -424q84 -68 209 -68t210 91t85 210z" />
    <glyph glyph-name="ugrave" unicode="&#xf9;" horiz-adv-x="1036" 
d="M276 1415h164l140 -395h-113zM515 -18q-175 0 -273.5 103t-98.5 290v473h144v-467q0 -133 54 -202.5t177 -69.5t178.5 69.5t55.5 202.5v467h141v-473q0 -186 -101.5 -289.5t-276.5 -103.5z" />
    <glyph glyph-name="uacute" unicode="&#xfa;" horiz-adv-x="1036" 
d="M598 1415h164l-191 -395h-112zM515 -18q-175 0 -273.5 103t-98.5 290v473h144v-467q0 -133 54 -202.5t177 -69.5t178.5 69.5t55.5 202.5v467h141v-473q0 -186 -101.5 -289.5t-276.5 -103.5z" />
    <glyph glyph-name="ucircumflex" unicode="&#xfb;" horiz-adv-x="1036" 
d="M510 1411h18l263 -395h-125l-146 203l-147 -203h-125zM515 -18q-175 0 -273.5 103t-98.5 290v473h144v-467q0 -133 54 -202.5t177 -69.5t178.5 69.5t55.5 202.5v467h141v-473q0 -186 -101.5 -289.5t-276.5 -103.5z" />
    <glyph glyph-name="udieresis" unicode="&#xfc;" horiz-adv-x="1036" 
d="M698.5 1057q-36.5 0 -66.5 27.5t-30 67.5t30 66.5t66.5 26.5t65.5 -26.5t29 -66.5t-29 -67.5t-65.5 -27.5zM343 1057q-38 0 -66.5 27.5t-28.5 67.5t28.5 66.5t66.5 26.5t66.5 -26.5t28.5 -66.5t-28.5 -67.5t-66.5 -27.5zM515 -18q-175 0 -273.5 103t-98.5 290v473h144
v-467q0 -133 54 -202.5t177 -69.5t178.5 69.5t55.5 202.5v467h141v-473q0 -186 -101.5 -289.5t-276.5 -103.5z" />
    <glyph glyph-name="yacute" unicode="&#xfd;" horiz-adv-x="946" 
d="M559 1415h164l-191 -395h-112zM412 72l-361 776h158l240 -526q26 -64 38 -144q13 90 39 144l222 526h147l-553 -1282h-147z" />
    <glyph glyph-name="thorn" unicode="&#xfe;" horiz-adv-x="1130" 
d="M156 1479h143v-805q45 86 127 139t184 53q189 0 305.5 -124.5t116.5 -317.5q0 -192 -118 -316t-289 -124q-115 0 -200 54t-126 138v-610h-143v1913zM806 198q79 89 79 229t-82 226t-212.5 86t-215 -86.5t-84.5 -226.5t84 -228.5t218 -88.5t213 89z" />
    <glyph glyph-name="ydieresis" unicode="&#xff;" horiz-adv-x="946" 
d="M649 1057q-37 0 -66.5 27.5t-29.5 67.5t29.5 66.5t66.5 26.5t65.5 -26.5t28.5 -66.5t-28.5 -67.5t-65.5 -27.5zM294 1057q-38 0 -66.5 27.5t-28.5 67.5t28.5 66.5t66.5 26.5t66.5 -26.5t28.5 -66.5t-28.5 -67.5t-66.5 -27.5zM412 72l-361 776h158l240 -526
q26 -64 38 -144q13 90 39 144l222 526h147l-553 -1282h-147z" />
    <glyph glyph-name="dotlessi" unicode="&#x131;" horiz-adv-x="454" 
d="M156 848h143v-848h-143v848z" />
    <glyph glyph-name="Lslash" unicode="&#x141;" horiz-adv-x="1087" 
d="M197 1393h149v-797l408 160v-133l-408 -162v-330h658v-131h-807v408l-154 -60v133l154 60v852z" />
    <glyph glyph-name="lslash" unicode="&#x142;" horiz-adv-x="546" 
d="M203 1479h143v-760l180 110v-141l-180 -110v-578h-143v494l-174 -105v141l174 107v842z" />
    <glyph glyph-name="OE" unicode="&#x152;" horiz-adv-x="2021" 
d="M844 0q-336 0 -534.5 193t-198.5 504.5t198 503.5t535 192h1028v-131h-698v-654h622v-129h-622v-348h727v-131h-1057zM1026 133v1127h-170q-291 0 -441.5 -154t-150.5 -409.5t150.5 -409.5t441.5 -154h170z" />
    <glyph glyph-name="oe" unicode="&#x153;" horiz-adv-x="1804" 
d="M566 -16q-114 0 -195.5 33.5t-142 93t-95.5 140.5t-35 219t129 267t322 129q133 0 228 -65.5t143 -171.5q45 104 138.5 170.5t209.5 66.5q216 0 332 -137t108 -352h-721q14 -123 94 -198t236 -75t254 113l88 -86q-131 -147 -354 -147q-145 0 -241.5 65.5t-143.5 169.5
q-47 -104 -143.5 -169.5t-210.5 -65.5zM1282 745q-123 0 -199.5 -71.5t-93.5 -188.5h576q-13 179 -114 219.5t-169 40.5zM548.5 106q67.5 0 123 24t95.5 67t61.5 101t21.5 126t-21.5 126t-61.5 101t-95.5 66.5t-123 23.5t-123.5 -23.5t-96 -66.5t-62.5 -101t-22.5 -126
t22.5 -126t62.5 -101t96 -67t123.5 -24z" />
    <glyph glyph-name="Scaron" unicode="&#x160;" horiz-adv-x="1087" 
d="M242 1917h125l145 -203l147 203h125l-262 -395h-18zM829 351q0 103 -62.5 167.5t-199.5 124.5l-110 51q-157 70 -232 156.5t-75 230.5t102.5 236t253.5 92t241.5 -58.5t145.5 -150.5l-119 -74q-41 66 -100.5 109t-160.5 43t-159.5 -54.5t-58.5 -145.5t52 -143t169 -106
l111 -51q181 -82 265.5 -178t84.5 -256t-121 -260t-314 -100q-181 0 -301.5 79t-181.5 203l123 66q60 -103 141 -160t218 -57q195 0 241.5 91t46.5 145z" />
    <glyph glyph-name="scaron" unicode="&#x161;" horiz-adv-x="839" 
d="M133 1395h125l145 -203l148 203h125l-262 -396h-19zM304 556.5q40 -25.5 127 -49.5q167 -47 240.5 -103.5t73.5 -166.5t-74.5 -181.5t-224.5 -71.5t-240.5 58t-131.5 138l110 64q87 -144 246 -144q86 0 133 34t47 81t-14 69.5t-47.5 42t-120.5 45.5q-88 25 -191.5 65.5
t-103.5 199.5q0 109 80.5 169t188.5 60q195 0 292 -137l-98 -76q-71 97 -184 97q-70 0 -109 -30t-39 -84t40 -79.5z" />
    <glyph glyph-name="Ydieresis" unicode="&#x178;" horiz-adv-x="1343" 
d="M848 1579q-37 0 -66.5 27.5t-29.5 67.5t29.5 66.5t66.5 26.5t65.5 -26.5t28.5 -66.5t-28.5 -67.5t-65.5 -27.5zM493 1579q-38 0 -67 27.5t-29 67.5t29 66.5t67 26.5t66.5 -26.5t28.5 -66.5t-28.5 -67.5t-66.5 -27.5zM754 0h-152v436l-526 957h166l379 -693q27 -53 38 -84
t21 -57q17 55 33 87t26 54l377 693h154l-516 -951v-442z" />
    <glyph glyph-name="Zcaron" unicode="&#x17d;" horiz-adv-x="1189" 
d="M356 1917h125l146 -203l147 203h125l-262 -395h-19zM190 1262v131h897v-23l-776 -1239h781v-131h-1012v23l778 1239h-668z" />
    <glyph glyph-name="zcaron" unicode="&#x17e;" horiz-adv-x="854" 
d="M188 1395h125l146 -203l147 203h125l-262 -396h-18zM119 729v119h667v-23l-493 -706h483v-119h-710v20l489 709h-436z" />
    <glyph glyph-name="florin" unicode="&#x192;" horiz-adv-x="751" 
d="M572 1286q-60 0 -90.5 -29.5t-41.5 -115.5l-57 -500h205v-115h-217l-109 -960h-139l108 960h-143v115h156l55 494q16 147 84 210.5t161 63.5t140 -31.5t76 -79.5l-92 -77q-36 65 -96 65z" />
    <glyph glyph-name="circumflex" unicode="&#x2c6;" horiz-adv-x="1024" 
d="M502 1411h18l262 -395h-125l-145 203l-147 -203h-125z" />
    <glyph glyph-name="caron" unicode="&#x2c7;" horiz-adv-x="1024" 
d="M242 1395h125l145 -203l147 203h125l-262 -396h-18z" />
    <glyph glyph-name="breve" unicode="&#x2d8;" horiz-adv-x="1024" 
d="M512 1001q-119 0 -185.5 68t-82.5 170l114 21q14 -61 48 -103.5t106 -42.5t105.5 42t48.5 104l114 -21q-16 -102 -82.5 -170t-185.5 -68z" />
    <glyph glyph-name="dotaccent" unicode="&#x2d9;" horiz-adv-x="1024" 
d="M512 1057q-37 0 -66.5 26.5t-29.5 67.5t29.5 68.5t66.5 27.5t66.5 -27.5t29.5 -68.5t-29.5 -67.5t-66.5 -26.5z" />
    <glyph glyph-name="ring" unicode="&#x2da;" horiz-adv-x="1024" 
d="M512 991q-92 0 -153.5 59.5t-61.5 146.5t63.5 146.5t151.5 59.5t151.5 -59.5t63.5 -146.5t-61.5 -146.5t-153.5 -59.5zM512 1083q47 0 76.5 31t29.5 83t-29.5 82t-76.5 30t-76.5 -30t-29.5 -82t29.5 -83t76.5 -31z" />
    <glyph glyph-name="ogonek" unicode="&#x2db;" horiz-adv-x="1024" 
d="M297 -310q0 78 25.5 128.5t58.5 93.5l65 88h105l-74 -121q-33 -53 -48 -88t-15 -80t23.5 -65.5t56.5 -20.5q64 0 104 72l90 -51q-64 -121 -201 -121q-76 0 -133 43.5t-57 121.5z" />
    <glyph glyph-name="tilde" unicode="&#x2dc;" horiz-adv-x="1024" 
d="M391 1245q43 0 75 -18.5t68 -50.5t54 -43t43 -11q61 0 74 119l106 -10q-6 -111 -52 -168t-124 -57q-43 0 -75 19t-68 51t-54 43t-43 11q-63 0 -76 -120l-106 8q6 111 54 169t124 58z" />
    <glyph glyph-name="hungarumlaut" unicode="&#x2dd;" horiz-adv-x="1024" 
d="M731 1415h156l-182 -395h-113zM446 1415h156l-180 -395h-113z" />
    <glyph glyph-name="Delta" unicode="&#x394;" 
d="M208 387q-44 0 -78 33t-34 80t34 78.5t78 31.5t76.5 -31.5t32.5 -78.5t-32.5 -80t-76.5 -33z" />
    <glyph glyph-name="Delta" unicode="&#x2206;" 
d="M208 387q-44 0 -78 33t-34 80t34 78.5t78 31.5t76.5 -31.5t32.5 -78.5t-32.5 -80t-76.5 -33z" />
    <glyph glyph-name="Omega" unicode="&#x3a9;" 
d="M208 387q-44 0 -78 33t-34 80t34 78.5t78 31.5t76.5 -31.5t32.5 -78.5t-32.5 -80t-76.5 -33z" />
    <glyph glyph-name="Omega" unicode="&#x2126;" 
d="M208 387q-44 0 -78 33t-34 80t34 78.5t78 31.5t76.5 -31.5t32.5 -78.5t-32.5 -80t-76.5 -33z" />
    <glyph glyph-name="pi" unicode="&#x3c0;" 
d="M208 387q-44 0 -78 33t-34 80t34 78.5t78 31.5t76.5 -31.5t32.5 -78.5t-32.5 -80t-76.5 -33z" />
    <glyph glyph-name="endash" unicode="&#x2013;" horiz-adv-x="806" 
d="M72 459h661v-125h-661v125z" />
    <glyph glyph-name="emdash" unicode="&#x2014;" horiz-adv-x="1275" 
d="M72 459h1132v-125h-1132v125z" />
    <glyph glyph-name="quoteleft" unicode="&#x2018;" horiz-adv-x="407" 
d="M204 973q-42 0 -75 30.5t-33 70.5t27 89l113 230h77l-69 -213q27 -10 47 -37t20 -68t-32.5 -71.5t-74.5 -30.5z" />
    <glyph glyph-name="quoteright" unicode="&#x2019;" horiz-adv-x="407" 
d="M96 1304q0 40 33 71.5t75 31.5t74.5 -30.5t32.5 -64.5t-8 -53.5t-18 -41.5l-115 -230h-76l70 213q-29 10 -48.5 37t-19.5 67z" />
    <glyph glyph-name="quotesinglbase" unicode="&#x201a;" horiz-adv-x="407" 
d="M96 106q0 40 33 71.5t75 31.5t74.5 -31.5t32.5 -63.5t-8 -51.5t-18 -42.5l-115 -231h-76l70 215q-29 8 -48.5 35t-19.5 67z" />
    <glyph glyph-name="quotedblleft" unicode="&#x201c;" horiz-adv-x="731" 
d="M527 973q-42 0 -74.5 30.5t-32.5 64.5t8 53.5t18 41.5l115 230h76l-70 -213q29 -10 48.5 -37t19.5 -68t-33 -71.5t-75 -30.5zM204 973q-42 0 -75 30.5t-33 70.5t27 89l113 230h77l-69 -213q27 -10 47 -37t20 -68t-32.5 -71.5t-74.5 -30.5z" />
    <glyph glyph-name="quotedblright" unicode="&#x201d;" horiz-adv-x="731" 
d="M420 1304q0 40 32.5 71.5t74.5 31.5t75 -30.5t33 -72.5t-27 -87l-112 -230h-78l69 213q-27 10 -47 37t-20 67zM96 1304q0 40 33 71.5t75 31.5t74.5 -30.5t32.5 -64.5t-8 -53.5t-18 -41.5l-115 -230h-76l70 213q-29 10 -48.5 37t-19.5 67z" />
    <glyph glyph-name="quotedblbase" unicode="&#x201e;" horiz-adv-x="731" 
d="M420 106q0 40 32.5 71.5t74.5 31.5t75 -31t33 -71t-27 -87l-112 -231h-78l69 215q-27 8 -47 35t-20 67zM96 106q0 40 33 71.5t75 31.5t74.5 -31.5t32.5 -63.5t-8 -51.5t-18 -42.5l-115 -231h-76l70 215q-29 8 -48.5 35t-19.5 67z" />
    <glyph glyph-name="dagger" unicode="&#x2020;" horiz-adv-x="690" 
d="M279 1061h-191v119h191v213h133v-213h190v-119h-190v-488h-133v488z" />
    <glyph glyph-name="daggerdbl" unicode="&#x2021;" horiz-adv-x="690" 
d="M279 788h-191v111h191v168h-191v113h191v213h133v-213h190v-113h-190v-168h190v-111h-190v-215h-133v215z" />
    <glyph glyph-name="bullet" unicode="&#x2022;" horiz-adv-x="571" 
d="M285 344q-39 0 -74 15.5t-61.5 41t-42 60.5t-15.5 76t15.5 76.5t42 61t61.5 41t74 15.5t74.5 -15.5t62.5 -41t42 -61t15 -76.5t-15 -76t-42 -60.5t-62.5 -41t-74.5 -15.5z" />
    <glyph glyph-name="ellipsis" unicode="&#x2026;" horiz-adv-x="1261" 
d="M1056 -14q-44 0 -78 32.5t-34 79.5t34 79t78 32t76.5 -32t32.5 -79t-32.5 -79.5t-76.5 -32.5zM632 -14q-44 0 -78 32.5t-34 79.5t34 79t78 32t76.5 -32t32.5 -79t-32.5 -79.5t-76.5 -32.5zM208 -14q-44 0 -78 32.5t-34 79.5t34 79t78 32t76.5 -32t32.5 -79t-32.5 -79.5
t-76.5 -32.5z" />
    <glyph glyph-name="perthousand" unicode="&#x2030;" horiz-adv-x="2467" 
d="M409.5 723q-67.5 0 -131 25.5t-110.5 71.5t-76 109.5t-29 137.5t29 137.5t76 108.5t110.5 70.5t131 25.5t131 -25.5t111.5 -70.5t77 -108.5t29 -137.5t-29 -137.5t-77 -109.5t-111.5 -71.5t-131 -25.5zM1196 1393h145l-876 -1393h-146zM2060.5 -16q-67.5 0 -131 25.5
t-110.5 70.5t-76 108.5t-29 137t29 137t76 108.5t110.5 71t131 26t130 -26t110.5 -71t75.5 -108.5t27.5 -137t-27.5 -137t-75.5 -108.5t-110.5 -70.5t-130 -25.5zM1249.5 -16q-67.5 0 -131 25.5t-110.5 70.5t-76 108.5t-29 137t29 137t76 108.5t110.5 71t131 26t131 -26
t110.5 -71t75.5 -108.5t28.5 -137t-28.5 -137t-75.5 -108.5t-110.5 -70.5t-131 -25.5zM409.5 842q90.5 0 153 62.5t62.5 162.5t-62.5 161.5t-153 61.5t-151.5 -61.5t-61 -161.5t61 -162.5t151.5 -62.5zM2273 328q0 100 -62.5 161.5t-152.5 61.5t-151.5 -61.5t-61.5 -160.5
t61.5 -164t152.5 -65q90 0 152 64t62 164zM1464 330q0 98 -62.5 159.5t-152.5 61.5t-152.5 -61.5t-62.5 -160.5t61.5 -164t153.5 -65t153.5 66t61.5 164z" />
    <glyph glyph-name="guilsinglleft" unicode="&#x2039;" horiz-adv-x="495" 
d="M78 401v17l192 321h148l-197 -329l197 -334h-148z" />
    <glyph glyph-name="guilsinglright" unicode="&#x203a;" horiz-adv-x="495" 
d="M274 408l-196 331h147l193 -323v-17l-193 -323h-147z" />
    <glyph glyph-name="fraction" unicode="&#x2044;" horiz-adv-x="868" 
d="M793 1393h145l-860 -1393h-148z" />
    <glyph glyph-name="fraction" unicode="&#x2215;" horiz-adv-x="868" 
d="M793 1393h145l-860 -1393h-148z" />
    <glyph glyph-name="Euro" unicode="&#x20ac;" horiz-adv-x="1546" 
d="M254 672v32q0 33 2 48h-174v114h188q50 240 225.5 391.5t409.5 151.5q182 0 302 -66.5t200 -189.5l-113 -80q-104 154 -209.5 178.5t-188.5 24.5q-176 0 -300 -112.5t-166 -297.5h660v-114h-676q-2 -14 -2 -18v-38q0 -63 8 -121h670v-114h-641q53 -158 172.5 -252
t291.5 -94q280 0 424 241l117 -71q-173 -301 -541 -301q-224 0 -393.5 131t-232.5 346h-205v114h180q-8 59 -8 97z" />
    <glyph glyph-name="trademark" unicode="&#x2122;" horiz-adv-x="1484" 
d="M709 1403h18l295 -330l293 330h18v-619h-110v383l-191 -227h-20l-193 227v-383h-110v619zM283 1298h-185v95h480v-95h-185v-514h-110v514z" />
    <glyph glyph-name="partialdiff" unicode="&#x2202;" 
d="M208 387q-44 0 -78 33t-34 80t34 78.5t78 31.5t76.5 -31.5t32.5 -78.5t-32.5 -80t-76.5 -33z" />
    <glyph glyph-name="product" unicode="&#x220f;" 
d="M208 387q-44 0 -78 33t-34 80t34 78.5t78 31.5t76.5 -31.5t32.5 -78.5t-32.5 -80t-76.5 -33z" />
    <glyph glyph-name="summation" unicode="&#x2211;" horiz-adv-x="1650" 
d="M109 686q0 168 56 299t152.5 225.5t227.5 146.5t279 52q302 0 509 -201.5t207 -500.5t-182 -490t-457 -215q66 -53 133.5 -94t177.5 -41t191 92l100 -90q-115 -135 -303 -135q-156 0 -257 73.5t-155 114.5t-126 83t-160 42q-148 0 -248 -149l-100 82q79 122 219 165
q-123 92 -193.5 232.5t-70.5 308.5zM1386 696q0 251 -160.5 415.5t-402.5 164.5t-401.5 -165.5t-159.5 -414.5q0 -248 160 -411.5t402 -163.5q240 0 401 162t161 413z" />
    <glyph glyph-name="minus" unicode="&#x2212;" 
d="M208 387q-44 0 -78 33t-34 80t34 78.5t78 31.5t76.5 -31.5t32.5 -78.5t-32.5 -80t-76.5 -33z" />
    <glyph glyph-name="radical" unicode="&#x221a;" 
d="M208 387q-44 0 -78 33t-34 80t34 78.5t78 31.5t76.5 -31.5t32.5 -78.5t-32.5 -80t-76.5 -33z" />
    <glyph glyph-name="integral" unicode="&#x222b;" 
d="M208 387q-44 0 -78 33t-34 80t34 78.5t78 31.5t76.5 -31.5t32.5 -78.5t-32.5 -80t-76.5 -33z" />
    <glyph glyph-name="approxequal" unicode="&#x2248;" 
d="M208 387q-44 0 -78 33t-34 80t34 78.5t78 31.5t76.5 -31.5t32.5 -78.5t-32.5 -80t-76.5 -33z" />
    <glyph glyph-name="lessequal" unicode="&#x2264;" 
d="M208 387q-44 0 -78 33t-34 80t34 78.5t78 31.5t76.5 -31.5t32.5 -78.5t-32.5 -80t-76.5 -33z" />
    <glyph glyph-name="greaterequal" unicode="&#x2265;" 
d="M208 387q-44 0 -78 33t-34 80t34 78.5t78 31.5t76.5 -31.5t32.5 -78.5t-32.5 -80t-76.5 -33z" />
    <glyph glyph-name="lozenge" unicode="&#x25ca;" 
d="M208 387q-44 0 -78 33t-34 80t34 78.5t78 31.5t76.5 -31.5t32.5 -78.5t-32.5 -80t-76.5 -33z" />
    <glyph glyph-name="plusminus" horiz-adv-x="1562" 
d="M980 1376q-52 0 -79 -29.5t-27 -113.5v-385h220v-121h-220v-727h-143v727h-381v-727h-143v727h-137v121h137v344q0 143 64.5 207.5t154.5 64.5t140 -24.5t83 -65.5l-92 -90q-40 51 -94 51q-55 0 -84 -29.5t-29 -113.5v-344h381v385q0 143 64.5 207.5t154.5 64.5
t134 -24.5t75 -59.5l-90 -90q-37 45 -89 45zM1255 1479h144v-1479h-144v1479z" />
    <glyph glyph-name="apple" horiz-adv-x="413" 
d="M208 387q-44 0 -78 33t-34 80t34 78.5t78 31.5t76.5 -31.5t32.5 -78.5t-32.5 -80t-76.5 -33z" />
    <glyph glyph-name="infinity" horiz-adv-x="1554" 
d="M1327 1094q-41 0 -71.5 27.5t-30.5 72.5t30.5 73.5t71.5 28.5t72 -28.5t31 -73.5t-31 -72.5t-72 -27.5zM463 1335q-55 0 -84 -29.5t-29 -113.5v-344h381v385q0 143 65.5 207.5t157.5 64.5q147 0 220 -92l-91 -86q-23 23 -45 36t-64 13q-100 0 -100 -143v-385h525v-848
h-144v727h-381v-727h-143v727h-381v-727h-143v727h-137v121h137v344q0 143 64.5 207.5t154.5 64.5t140 -24.5t83 -65.5l-92 -90q-39 51 -94 51z" />
    <glyph glyph-name="notequal" horiz-adv-x="1171" 
d="M979 1376q-105 0 -105 -143v-385h228v-121h-228v-727h-143v727h-381v-727h-143v727h-137v121h137v344q0 143 64.5 207.5t154.5 64.5t140 -24.5t83 -65.5l-92 -90q-40 51 -94 51q-55 0 -84 -29.5t-29 -113.5v-344h381v385q0 143 65.5 207.5t157.5 64.5q155 0 228 -104
l-95 -84q-20 27 -42.5 43t-65.5 16z" />
    </font>
</defs>
</svg>
