<svg xmlns:dc="http://purl.org/dc/elements/1.1/" xmlns:cc="http://creativecommons.org/ns#" xmlns:rdf="http://www.w3.org/1999/02/22-rdf-syntax-ns#" xmlns:svg="http://www.w3.org/2000/svg" xmlns="http://www.w3.org/2000/svg" xmlns:sodipodi="http://sodipodi.sourceforge.net/DTD/sodipodi-0.dtd" xmlns:inkscape="http://www.inkscape.org/namespaces/inkscape" version="1.1" x="0px" y="0px" viewBox="0 0 100 125"><g transform="translate(0,-952.36218)"><path style="font-size:medium;font-style:normal;font-variant:normal;font-weight:normal;font-stretch:normal;text-indent:0;text-align:start;text-decoration:none;line-height:normal;letter-spacing:normal;word-spacing:normal;text-transform:none;direction:ltr;block-progression:tb;writing-mode:lr-tb;text-anchor:start;baseline-shift:baseline;opacity:1;color:#000000;fill:#000000;fill-opacity:1;stroke:none;stroke-width:2;marker:none;visibility:visible;display:inline;overflow:visible;enable-background:accumulate;font-family:Sans;-inkscape-font-specification:Sans" d="M 19,7 C 13.388255,7 9,11.39944 9,17 l 0,11 c 5.24e-5,0.523584 0.4764155,0.999948 1,1 l 6,0 0,50 -6,0 c -0.6638734,0 -1,0.580782 -1,1 l 0,12 c 5.24e-5,0.523584 0.4764155,0.999948 1,1 l 80,0 c 0.523584,-5.2e-5 0.999948,-0.476416 1,-1 l 0,-12 c -5.2e-5,-0.523584 -0.476416,-0.999948 -1,-1 l -6,0 0,-50 6,0 c 0.523584,-5.2e-5 0.999948,-0.476416 1,-1 L 91,17 C 91,11.39944 86.611745,7 81,7 z m 0,2 62,0 c 4.589615,0 8,3.4209 8,8 l 0,10 -78,0 0,-10 c 0,-4.5791 3.410385,-8 8,-8 z m 57,5 c -2.197294,0 -4,1.8027 -4,4 0,2.19729 1.802706,4 4,4 2.197294,0 4,-1.80271 4,-4 0,-2.1973 -1.802706,-4 -4,-4 z m 0,2 c 1.116414,0 2,0.88358 2,2 0,1.11641 -0.883586,2 -2,2 -1.116414,0 -2,-0.88359 -2,-2 0,-1.11642 0.883586,-2 2,-2 z m -59,2 c 0,0.471405 0.474105,1 1,1 l 8,0 c 0.528313,0.0075 1.014242,-0.471635 1.014242,-1 0,-0.528365 -0.485929,-1.007472 -1.014242,-1 l -8,0 c -0.738105,0 -1,0.528595 -1,1 z m 16,0 c 0,0.471405 0.474105,1 1,1 l 8,0 c 0.528313,0.0075 1.014242,-0.471635 1.014242,-1 0,-0.528365 -0.485929,-1.007472 -1.014242,-1 l -8,0 c -0.738105,0 -1,0.528595 -1,1 z m -15,11 21,0 0,4 c 0.0077,0.341599 0.204052,0.672977 0.5,0.84375 L 44,36.53125 44,42 c 5.2e-5,0.523584 0.476416,0.999948 1,1 l 10,0 c 0.523584,-5.2e-5 0.999948,-0.476416 1,-1 l 0,-5.46875 4.5,-2.6875 C 60.795948,33.672977 60.99232,33.341599 61,33 l 0,-4 21,0 0,50 -13.84375,0 C 68.400637,78.728845 68.629134,78.43859 68.8125,78.125 69.830225,76.3845 70,74.2399 70,72 c -5.2e-5,-0.523584 -0.476416,-0.999948 -1,-1 l -7,0 0,-4 3,0 c 1.658987,0 3,-1.3355 3,-3 l 0,-8 c 0,-1.6645 -1.341013,-3 -3,-3 l -3,0 0,-3 c -5.2e-5,-0.523584 -0.476416,-0.999948 -1,-1 l -24,0 c -0.523584,5.2e-5 -0.999948,0.476416 -1,1 l 0,21 -5,0 c -0.685153,0 -1,0.581176 -1,1 0,2.215079 0.169776,4.3845 1.1875,6.125 0.183366,0.31359 0.411863,0.603845 0.65625,0.875 L 18,79 z m 23,0 18,0 0,3.4375 -4.5,2.6875 C 54.195108,35.301034 53.996869,35.647952 54,36 l 0,5 -8,0 0,-5 c 0.0031,-0.352048 -0.195108,-0.698966 -0.5,-0.875 L 41,32.4375 z m -3,22 22,0 0,20 -22,0 z m 24,4 3,0 c 0.367291,0 1,0.6275 1,1 l 0,8 c 0,0.3725 -0.632709,1 -1,1 l -3,0 z m -29.9375,18 35.875,0 C 67.866,74.6643 67.660414,76.1559 67.09375,77.125 66.409356,78.2954 65.361797,79 63,79 L 37,79 C 34.638204,79 33.590645,78.2954 32.90625,77.125 32.339585,76.1559 32.133997,74.6643 32.0625,73 z M 11,81 l 78,0 0,10 -78,0 z" transform="translate(0,952.36218)"/></g></svg>
