<svg xmlns="http://www.w3.org/2000/svg" xmlns:xlink="http://www.w3.org/1999/xlink" version="1.1" x="0px" y="0px" viewBox="0 0 100 125" enable-background="new 0 0 100 100" xml:space="preserve"><path fill="#000000" d="M98.566,31.331c0-1.729-2.093-1.848-5.261-2.028c-1.798-0.103-4.036-0.229-6.171-0.656  c-0.893-0.178-1.942-1.102-3.055-2.08c-1.601-1.408-3.414-3.003-5.699-3.254c-1.677-0.184-3.447,0.727-5.135,1.613  c-1.56,0.819-3.185,1.66-4.604,1.575c-1.147-0.073-2.437-0.983-3.801-1.947c-1.685-1.189-3.426-2.419-5.42-2.478l-0.13-0.002  c-1.761,0-3.438,1.037-5.058,2.04c-1.451,0.897-2.952,1.826-4.281,1.826c-1.33,0-2.831-0.928-4.282-1.826  c-1.622-1.003-3.298-2.04-5.059-2.04l-0.13,0.002c-1.994,0.059-3.734,1.289-5.418,2.478c-1.364,0.964-2.652,1.874-3.799,1.947  c-1.448,0.085-3.042-0.756-4.602-1.574c-1.687-0.885-3.457-1.799-5.134-1.613c-2.285,0.25-4.098,1.846-5.698,3.253  c-1.112,0.978-2.163,1.902-3.055,2.081c-2.135,0.427-4.374,0.554-6.172,0.656c-3.169,0.18-5.262,0.299-5.262,2.028  c0,0.981,0.692,1.437,1.855,1.686c0.508,3.508,2.489,6.645,4.271,9.455c1.429,2.253,2.778,4.382,3.233,6.412  c0.538,2.402,0.484,5.103,0.433,7.715c-0.087,4.448-0.17,8.649,2.46,11.525c2.609,2.854,6.832,3.088,11.303,3.335  c2.57,0.143,5.227,0.29,7.647,0.948c0.408,0.111,0.822,0.268,1.241,0.452l0.025,0.232l0.386-0.041  c1.336,0.646,2.73,1.585,4.181,2.568c3.307,2.24,7.054,4.78,11.577,4.78c4.521,0,8.27-2.54,11.575-4.78  c1.451-0.983,2.845-1.922,4.181-2.568l0.387,0.041l0.025-0.232c0.419-0.185,0.833-0.341,1.241-0.452  c2.42-0.658,5.077-0.806,7.647-0.947c4.47-0.247,8.692-0.481,11.302-3.334c2.63-2.877,2.548-7.079,2.46-11.527  c-0.051-2.612-0.104-5.313,0.434-7.715c0.455-2.03,1.805-4.158,3.233-6.412c1.782-2.811,3.762-5.947,4.271-9.455  C97.874,32.768,98.566,32.313,98.566,31.331z M6.718,31.299c1.861-0.106,4.178-0.237,6.451-0.692  c1.418-0.283,2.665-1.379,3.984-2.54c0.819-0.721,1.656-1.448,2.528-1.982l0.563,5.26c0.055,0.513,0.488,0.894,0.993,0.894  c0.036,0,0.072-0.002,0.108-0.006c0.549-0.059,0.947-0.551,0.888-1.101l-0.622-5.805c0.046-0.007,0.091-0.021,0.137-0.026  c1.121-0.128,2.5,0.616,3.986,1.396c1.8,0.944,3.681,1.923,5.658,1.8c1.711-0.108,3.295-1.228,4.827-2.31  c1.105-0.781,2.239-1.578,3.367-1.928l0.887,8.276c0.055,0.513,0.488,0.894,0.993,0.894c0.035,0,0.071-0.002,0.107-0.006  c0.549-0.059,0.947-0.552,0.888-1.101l-0.866-8.082c0.94,0.288,1.96,0.916,3.024,1.574c1.689,1.045,3.436,2.125,5.334,2.125  c1.897,0,3.645-1.08,5.333-2.125c1.055-0.652,2.065-1.274,3.026-1.565l-0.854,7.967c-0.059,0.549,0.339,1.042,0.888,1.101  c0.036,0.004,0.072,0.006,0.107,0.006c0.505,0,0.938-0.38,0.993-0.894l0.876-8.176c1.105,0.345,2.249,1.147,3.364,1.935  c1.532,1.082,3.116,2.201,4.828,2.31c1.984,0.123,3.859-0.855,5.659-1.8c1.487-0.78,2.873-1.52,3.987-1.396  c0.046,0.005,0.09,0.02,0.135,0.026l-0.609,5.683c-0.059,0.549,0.338,1.042,0.888,1.101c0.036,0.004,0.072,0.006,0.107,0.006  c0.505,0,0.938-0.38,0.993-0.893l0.552-5.141c0.873,0.534,1.712,1.263,2.532,1.985c1.318,1.16,2.564,2.256,3.982,2.54  c2.273,0.455,4.589,0.586,6.45,0.692c0.177,0.01,0.359,0.021,0.544,0.031c-0.185,0.011-0.367,0.021-0.545,0.031  c-1.861,0.106-4.178,0.238-6.452,0.692c-1.418,0.283-2.664,1.379-3.983,2.539c-1.445,1.271-2.939,2.585-4.597,2.767  c-1.11,0.126-2.498-0.615-3.985-1.396c-1.799-0.945-3.677-1.929-5.658-1.8c-1.711,0.108-3.295,1.227-4.826,2.309  c-1.441,1.019-2.933,2.072-4.396,2.114c-1.192,0-2.559-0.845-4.006-1.74c-1.689-1.044-3.437-2.125-5.335-2.125  c-1.897,0-3.644,1.08-5.333,2.125c-1.447,0.895-2.813,1.74-4.005,1.74l-0.072-0.001c-1.391-0.041-2.882-1.094-4.323-2.112  c-1.532-1.082-3.116-2.201-4.828-2.31c-0.114-0.007-0.228-0.011-0.342-0.011c-1.867,0-3.621,0.92-5.316,1.81  c-1.487,0.779-2.862,1.513-3.988,1.396c-1.657-0.182-3.151-1.496-4.596-2.767c-1.319-1.16-2.565-2.256-3.983-2.54  c-2.273-0.455-4.589-0.586-6.45-0.692c-0.177-0.01-0.359-0.02-0.543-0.031C6.358,31.32,6.541,31.31,6.718,31.299z M69.225,36.177  l-0.058-0.006C69.186,36.173,69.205,36.176,69.225,36.177z M30.752,36.17l-0.098,0.011C30.687,36.177,30.72,36.173,30.752,36.17z   M13.134,56.64c0.054-2.731,0.109-5.555-0.481-8.192c-0.53-2.37-1.971-4.641-3.496-7.046c-1.644-2.593-3.314-5.261-3.876-8.125  c0.417,0.029,0.854,0.056,1.321,0.083c1.673,0.095,3.726,0.222,5.724,0.582l3.631,33.608c-0.322-0.228-0.621-0.481-0.888-0.773  C12.979,64.489,13.054,60.677,13.134,56.64z M33.069,70.479c-2.624-0.714-5.388-0.867-8.062-1.016  c-2.521-0.139-4.954-0.275-6.929-0.899l-3.634-33.635c0.445,0.344,0.908,0.748,1.383,1.166c1.601,1.408,3.415,3.003,5.699,3.254  c1.687,0.185,3.448-0.728,5.136-1.613c1.071-0.562,2.163-1.128,3.208-1.404l3.676,34.299C33.388,70.579,33.229,70.521,33.069,70.479  z M35.656,71.548l-3.779-35.269c0.987,0.281,2.062,1.033,3.189,1.83c1.684,1.189,3.425,2.419,5.419,2.478l0.13,0.002  c1.761,0,3.437-1.037,5.057-2.04c1.098-0.679,2.224-1.374,3.283-1.673V78.33c-3.481-0.342-6.516-2.374-9.456-4.366  C38.188,73.076,36.921,72.221,35.656,71.548z M60.409,73.964c-2.939,1.992-5.975,4.024-9.454,4.366V36.877  c1.059,0.299,2.184,0.994,3.281,1.672c1.621,1.002,3.297,2.039,5.058,2.039l0.13-0.002c1.994-0.059,3.735-1.289,5.42-2.478  c1.127-0.796,2.201-1.548,3.188-1.83l-3.779,35.269C62.987,72.222,61.72,73.076,60.409,73.964z M74.901,69.464  c-2.674,0.147-5.438,0.301-8.062,1.015c-0.16,0.043-0.318,0.101-0.478,0.152l3.676-34.297c1.043,0.276,2.137,0.841,3.207,1.402  c1.688,0.885,3.454,1.794,5.134,1.613c2.284-0.25,4.099-1.846,5.699-3.253c0.477-0.419,0.941-0.825,1.388-1.169L81.83,68.564  C79.854,69.188,77.422,69.324,74.901,69.464z M90.751,41.402c-1.524,2.405-2.965,4.676-3.495,7.046  c-0.591,2.637-0.535,5.46-0.481,8.191c0.079,4.038,0.153,7.852-1.938,10.139c-0.267,0.291-0.564,0.545-0.886,0.772l3.632-33.609  c1.997-0.359,4.049-0.486,5.722-0.581c0.469-0.026,0.904-0.054,1.323-0.083C94.065,36.14,92.396,38.809,90.751,41.402z"/></svg>
