<svg xmlns="http://www.w3.org/2000/svg" xmlns:xlink="http://www.w3.org/1999/xlink" version="1.1" x="0px" y="0px" viewBox="0 0 100 125" enable-background="new 0 0 100 100" xml:space="preserve"><g><path d="M50.038,48.449c-1.219,0-29.845-0.062-29.845-5.45c0-0.723,0.539-1.187,0.934-1.525c0.418-0.36,1.059-0.32,1.419,0.099   c0.359,0.419,0.32,1.042-0.098,1.403c-0.04,0.034-0.084,0.072-0.126,0.109c1.513,1.438,11.704,3.365,27.716,3.365   c16.29,0,26.555-1.995,27.786-3.439c-0.032-0.031-0.076-0.069-0.136-0.114c-0.443-0.33-0.534-0.957-0.204-1.399   c0.33-0.442,0.958-0.534,1.399-0.203c0.826,0.616,0.999,1.268,0.999,1.706C79.883,48.387,51.257,48.449,50.038,48.449z"/></g><g><path d="M50.038,68.652c-2.832,0-27.669-0.143-27.669-5.113c0-0.553,0.447-1,1-1c0.521,0,0.947,0.398,0.995,0.904   c0.946,1.326,10.521,3.209,25.674,3.209s24.728-1.883,25.674-3.209c0.048-0.506,0.475-0.904,0.995-0.904c0.553,0,1,0.447,1,1   C77.707,68.51,52.87,68.652,50.038,68.652z"/></g><g><path d="M23.272,64.373c-0.506,0-0.939-0.381-0.993-0.895l-2.106-20.093c-0.058-0.549,0.341-1.042,0.89-1.099   c0.557-0.055,1.041,0.341,1.099,0.89l2.106,20.093c0.058,0.549-0.341,1.041-0.89,1.098C23.343,64.371,23.307,64.373,23.272,64.373z   "/></g><g><path d="M76.708,64.539c-0.033,0-0.067-0.002-0.102-0.004c-0.55-0.057-0.95-0.547-0.895-1.096l2.056-20.343   c0.057-0.549,0.545-0.95,1.096-0.895c0.55,0.056,0.95,0.546,0.895,1.096l-2.056,20.343C77.649,64.154,77.215,64.539,76.708,64.539z   "/></g><g><g><path d="M74.341,64.834l-2.36,23.455C71.438,89.283,64.504,93,50.038,93c-15.162,0-21.468-3.631-21.94-4.686    c-0.001-0.002,0-0.004,0-0.006L25.799,65.32c-0.949-0.32-1.659-0.645-2.105-0.951l2.414,24.139    c0.004,0.043,0.025,0.08,0.035,0.121C26.562,91.371,34.826,95,50.038,95c14.372,0,23.341-3.602,23.884-6.33    c0.015-0.055,0.041-0.104,0.047-0.162l2.447-24.316C76.135,64.293,75.434,64.527,74.341,64.834z M28.088,88.408    c0-0.021,0.008-0.039,0.006-0.061c0.004,0.018,0.009,0.021,0.009,0.061H28.088z M71.974,88.408c0-0.029,0.005-0.049,0.008-0.07    c-0.001,0.025,0.007,0.047,0.007,0.07H71.974z"/></g><g><path d="M82.002,18.428c-0.105-0.278-0.275-0.542-0.522-0.791c-0.067-3.263-0.787-4.977-0.998-5.402    c-0.395-1.181-2.233-2.084-4.82-2.779c-1.276-0.433-3.324-0.847-6.64-1.222c-0.087-0.01-0.184-0.018-0.271-0.028    c-8.285-1.019-18.006-1.041-18.712-1.041c-0.711,0-10.553,0.022-18.872,1.061c-0.023,0.002-0.049,0.005-0.071,0.007    c-3.19,0.361-5.206,0.758-6.492,1.173c-2.685,0.701-4.604,1.619-5.009,2.828c-0.155,0.333-0.921,2.175-0.99,5.533    c-0.166,0.158-0.314,0.347-0.437,0.555c-0.396,0.533-1.753,2.653-0.646,5.209c0.06,0.274,0.223,0.523,0.488,0.667    c0.379,0.206,0.852,0.402,1.367,0.595c0.082,0.554,0.268,1.571,0.588,2.287l1.702,17.023c0.447,0.129,1.135,0.319,2.065,0.55    l-1.793-17.932c-0.002-0.017-0.012-0.032-0.014-0.048c-0.018-0.12-0.05-0.235-0.105-0.336c-0.1-0.186-0.197-0.512-0.28-0.871    c5.917,1.55,16.528,2.526,28.498,2.526c12.003,0,22.632-0.98,28.54-2.537c-0.084,0.363-0.182,0.693-0.283,0.882    c-0.062,0.112-0.102,0.238-0.117,0.374c0,0.003-0.002,0.006-0.002,0.01L76.411,44.26c0.686-0.175,1.376-0.365,2.066-0.556    l1.673-16.622c0.324-0.724,0.51-1.753,0.59-2.303c0.506-0.191,0.971-0.386,1.343-0.589c0.257-0.141,0.421-0.379,0.484-0.644    C83.625,21.125,82.469,19.095,82.002,18.428z M25.688,11.15c1.137-0.256,2.48-0.504,4.043-0.734    c4.446-0.594,11.402-1.071,20.328-1.071c8.455,0,15.151,0.427,19.614,0.978c1.947,0.269,3.605,0.567,4.938,0.876    c0.19,0.054,0.367,0.107,0.517,0.161c-2.643,0.938-11.646,2.015-25.069,2.015s-22.428-1.076-25.07-2.015    C25.184,11.29,25.424,11.22,25.688,11.15z M22.573,12.079c0.483,0.852,2.263,1.698,8.521,2.406    c5.071,0.573,11.807,0.889,18.964,0.889s13.892-0.316,18.963-0.889c6.227-0.704,8.02-1.545,8.514-2.393    c0.49,0.216,0.831,0.428,0.986,0.628c-1.148,1.485-11.671,3.555-28.483,3.555s-27.336-2.069-28.484-3.555    C21.712,12.516,22.066,12.299,22.573,12.079z M20.24,18.987c0.231-0.199,0.335-0.478,0.332-0.759h0.017    c0-1.555,0.169-2.741,0.354-3.594c5.874,3.592,28.016,3.642,29.096,3.642c1.081,0,23.265-0.05,29.112-3.652    c0.18,0.818,0.343,1.955,0.343,3.472h0.017c0.001,0.305,0.122,0.605,0.385,0.801c0.105,0.078,0.169,0.14,0.206,0.182    c-1.018,1.402-11.591,3.79-30.062,3.79c-18.312,0-28.861-2.346-30.022-3.686C20.086,19.119,20.169,19.048,20.24,18.987z     M80.783,22.595c-4.182,2.009-16.652,3.399-30.745,3.399c-14.062,0-26.519-1.386-30.724-3.39c-0.24-0.634-0.25-1.22-0.147-1.713    c5.724,3.924,29.718,3.977,30.871,3.977c1.155,0,25.194-0.054,30.887-3.989C81.029,21.372,81.021,21.959,80.783,22.595z"/></g></g></svg>
