<svg xmlns="http://www.w3.org/2000/svg" xmlns:xlink="http://www.w3.org/1999/xlink" version="1.1" x="0px" y="0px" viewBox="0 0 48 60" enable-background="new 0 0 48 48" xml:space="preserve"><g><g><path d="M27.197,15.675c-3.897,0-8.592-1.431-13.515-4.271C7.808,8.017,2.714,9.219,0.061,10.328    c-0.013,0.177-0.039,0.353-0.039,0.533c0,5.999,7.031,10.862,15.705,10.862c6.334,0,11.78-2.599,14.263-6.335    C29.113,15.572,28.186,15.675,27.197,15.675z"/><path d="M15.116,8.918c7.444,4.294,13.126,4.613,16.243,2.943c0.044-0.33,0.073-0.663,0.073-1.001C31.432,4.863,24.401,0,15.727,0    C9.05,0,3.363,2.886,1.09,6.948C4.513,6,9.534,5.697,15.116,8.918z"/></g><g><path d="M32.716,33.315c8.474-2.174,12.771-6.176,13.677-9.681c-0.12-0.164-0.229-0.333-0.364-0.487    c-3.868-4.417-12.184-3.013-18.573,3.138c-4.984,4.799-7.306,11.063-6.256,15.685C22.992,38.869,26.416,34.931,32.716,33.315z"/><path d="M33.429,36.095c-6.752,1.732-9.607,6.602-10.668,9.15c0.047,0.058,0.084,0.121,0.133,0.178    c3.87,4.419,12.185,3.014,18.574-3.137c4.72-4.543,7.058-10.402,6.402-14.938C45.43,31.142,40.309,34.33,33.429,36.095z"/></g></g></svg>
