<svg xmlns="http://www.w3.org/2000/svg" xmlns:xlink="http://www.w3.org/1999/xlink" version="1.1" x="0px" y="0px" viewBox="0 0 100 125" enable-background="new 0 0 100 100" xml:space="preserve"><path d="M93.434,3.803h-71.14c-0.864,0-1.565,0.701-1.565,1.566v15.952c0,0.865,0.701,1.565,1.565,1.565h18.883v2.373H6.566  C5.701,25.26,5,25.961,5,26.826v7.25c0,0.864,0.701,1.565,1.566,1.565h35.127c0.645,2.149,1.882,4.002,3.677,5.457  c2.479,2.01,5.928,3.117,9.709,3.117c3.78,0,7.229-1.107,9.71-3.117c2.743-2.224,4.193-5.369,4.193-9.095  c0-0.082-0.021-9.12-0.021-9.12h11.304v53.585H68.245c-0.007-0.455-0.015-1.084-0.015-1.496c0-0.826-0.351-1.57-0.908-2.098  c0.646-0.27,1.25-0.566,1.809-0.9c3.577-2.123,5.391-5.451,5.391-9.891V52.082c0-0.865-0.703-1.665-1.568-1.665  c-6.328,0-31.102,0-31.564,0c-0.865,0-1.566,0.702-1.566,1.565v0.387c-0.137,0-0.275,0-0.415,0c-4.22,0-7.65,2.992-7.65,6.674  c0,3.68,3.433,6.674,7.65,6.674c0.304,0,0.599-0.002,0.89-0.006c0.75,2.664,2.393,4.766,4.915,6.264  c0.56,0.332,1.164,0.633,1.81,0.9c-0.559,0.525-0.91,1.271-0.91,2.098v1.496H33.413c-12.528,0-16.813,17.068-16.991,17.793  c-0.113,0.467-0.006,0.961,0.291,1.338c0.297,0.379,0.751,0.598,1.23,0.598h75.49c0.865,0,1.566-0.699,1.566-1.564V78.037V5.37  C95,4.504,94.299,3.803,93.434,3.803z M39.406,62.588c-2.491,0-4.518-1.588-4.518-3.541s2.025-3.541,4.518-3.541  c0.14,0,0.277,0,0.416,0v6.582c0,0.17,0.008,0.332,0.013,0.498C39.691,62.588,39.551,62.588,39.406,62.588z M41.177,32.512H8.132  v-4.118h33.045V32.512z M55.079,41.085c-4.968,0-10.771-2.378-10.771-9.079v-5.179v-3.939h14.338c0.865,0,1.566-0.701,1.566-1.566  c0-0.864-0.701-1.565-1.566-1.565H23.859V6.937h68.008v12.818H67.396c-0.865,0-1.566,0.701-1.566,1.566l0.001,0.014l-0.001,0.009  c0,0,0.008,10.634,0.02,10.709C65.82,38.718,60.036,41.085,55.079,41.085z M83.398,22.888h8.469v53.585h-8.469V22.888L83.398,22.888  z M42.954,62.088v-8.539c1.007-0.006,28.435-0.002,28.435-0.002v8.541c0,6.197-4.783,9.34-14.218,9.34S42.954,68.285,42.954,62.088z   M49.243,75.223H65.1c0.002,0.395,0.008,0.873,0.014,1.25h-15.87V75.223L49.243,75.223z M91.867,93.068H20.055  c1.409-4.137,5.463-13.465,13.357-13.465h48.42h10.035V93.068L91.867,93.068z"/></svg>
