<svg xmlns="http://www.w3.org/2000/svg" xmlns:xlink="http://www.w3.org/1999/xlink" version="1.1" x="0px" y="0px" viewBox="0 0 90 112.5" enable-background="new 0 0 90 90" xml:space="preserve"><path d="M63,40.6c0.1,0,1.1,0.3,2.7,0.3h0c4.1,0,11.5-1.8,16.2-13.6c1.7-4.3,1.8-9.8,0.3-13.6c-2-4.9-6.1-6.8-6.2-6.9c0,0,0,0,0,0  c-0.1-0.1-2.6-1.2-5.8-1.2c-2.2,0-4.3,0.5-6.1,1.6c-3.4,2-5.5,7-7.1,11c-2.7,6.5-3,12-1,16.2C58.2,39.2,62.8,40.6,63,40.6z   M79.9,14.7c1.1,2.6,1.4,7.4-0.3,11.7c-4.1,10.5-10.5,12-13.9,12h0c-0.4,0-0.8,0-1.1-0.1c0.2-0.5,0.6-1.5,1.4-2.9  c2.4-4.1,5-10.4,5.7-12.7c0.6-2,0.9-4,1.1-5.8c0.2-1.5,0.4-2.8,0.7-3.7c0.8-2.1,1.5-3.2,2-3.8C76.6,10.2,78.7,11.9,79.9,14.7z   M72.2,10.1c-0.3,0.7-0.7,1.4-1,2.4c-0.4,1.1-0.6,2.5-0.8,4.2c-0.2,1.7-0.5,3.7-1,5.4c-0.7,2.3-3.3,8.4-5.5,12.2  c-0.6,1-1,1.8-1.3,2.5c-0.3-0.5-0.4-1.1-0.1-1.6c3.1-4.7,4.4-8.6,5.3-11.2c0.4-1,0.6-1.8,0.9-2.3c1.1-2.2,1.2-4.6,1.2-6.6  c0-1.2,0.1-2.3,0.3-2.8C70.7,11.3,71.4,10.6,72.2,10.1z M59.1,19.2c1.5-3.6,3.4-8.2,6.1-9.8c1.4-0.8,3-1.3,4.8-1.3  c0.2,0,0.5,0,0.7,0c-1.1,0.7-2.1,1.7-2.8,3.2c-0.4,1-0.5,2.3-0.5,3.7c0,1.8-0.1,3.8-1,5.5c-0.3,0.7-0.6,1.5-1,2.6  c-0.9,2.5-2.1,6.2-5.1,10.7c-0.4,0.6-0.6,1.3-0.6,1.9c-0.7-0.7-1.3-1.5-1.8-2.5C56.3,29.7,56.7,25,59.1,19.2z"/><path d="M83.6,69.9c-0.6-3.9-3.2-8.5-6.4-11.6c-4.7-4.5-9.3-6.8-13.7-6.8c-5.6,0-8.8,3.7-9.3,4.3c-0.3,0.3-3.3,3.2-3.2,8  c0.1,4.8,3,9.7,8.7,14.5c3.5,3,9.4,6,13.4,6c0,0,0.1,0,0.1,0c5-0.1,7.4-3.5,7.9-4.3C81.6,79.3,84.5,75.7,83.6,69.9z M63.4,53.9  c3.7,0,7.8,2.1,12,6.2c2.9,2.8,5.2,6.8,5.7,10.3c0.1,0.7,0.2,1.4,0.1,2.1c-0.2-0.3-0.5-0.7-0.8-1c-0.7-0.7-1.7-2-2.8-3.4  c-1.1-1.4-2.4-3.1-3.6-4.5c-0.7-0.8-1.7-1.2-2.8-1.8c-2.1-1-5-2.3-7.8-6.3c-0.3-0.5-1-1-2-1.3C62,54,62.7,53.9,63.4,53.9z   M61.4,56.8c3.2,4.5,6.5,6,8.7,7.1c0.9,0.4,1.7,0.8,2.1,1.2c1.2,1.3,2.4,2.9,3.5,4.3c1.2,1.5,2.2,2.9,3.1,3.7c0.9,0.9,1.1,2,1,3  c-0.6-0.9-1.5-2-2.7-3.1c-0.5-0.5-1.2-1.3-2-2.3c-1.2-1.6-2.8-3.6-4.7-5.1c-0.4-0.3-1.1-0.8-1.8-1.3c-2.4-1.7-6-4.2-8.1-6.9  c-0.3-0.3-0.6-0.7-0.8-0.9c0.2,0,0.4,0,0.6,0C60.6,56.4,61.2,56.5,61.4,56.8z M73,81.9L73,83.1L73,81.9c-3,0-8.4-2.5-11.8-5.4  c-5.1-4.4-7.8-8.7-7.8-12.7c0-3.4,1.9-5.6,2.4-6.1c0.1-0.1,0.3-0.1,0.6-0.3c0.3,0,1.1,0.2,2.1,1.6c2.4,2.9,6.1,5.6,8.6,7.3  c0.7,0.5,1.3,0.9,1.7,1.2c1.7,1.3,3.1,3.1,4.3,4.6c0.8,1.1,1.6,2,2.3,2.7c2,1.8,2.9,3.5,3.2,4.3C77.9,80,76.2,81.8,73,81.9z"/><path d="M28.7,33.4c-2.4,0-5.2,0.4-8.2,1.2c-4.7,1.2-9.4,2.9-12.5,7c-2,2.6-1.9,4.3-1.8,5c0,1.3,0.4,11.1,7.9,13.3  c2.4,0.7,5,1.1,7.6,1.1c1.8,0,3.5-0.2,5.2-0.5c6.9-1.4,11.6-4.1,14-8.2c2.5-4.3,1.4-8.5,1.2-9.3C42,41.8,40.1,33.4,28.7,33.4z   M10.1,43c2.6-3.5,6.9-5,11.1-6.1c2.8-0.7,5.3-1.1,7.6-1.1c9.2,0,10.8,6.2,11,7.4c-0.2,0.2-0.9,0.5-2.7,0.6  c-3.8,0.3-8.1,1.8-10.9,2.9c-0.8,0.3-1.5,0.5-2,0.7c-2,0.6-4.3,0.7-6.3,0.9c-1.4,0.1-2.6,0.1-3.5,0.4c-0.3,0.1-0.6,0.1-0.9,0.1  c-2.3,0-4.2-2.2-4.8-2.9C8.7,45.6,8.8,44.6,10.1,43z M38.8,46.1c-0.3,0.5-0.7,0.9-1.2,0.9c-5.5,0.1-8.7,1.9-10.8,3.1  c-0.9,0.5-1.6,0.9-2.2,1c-1.8,0.2-3.8,0.3-5.6,0.4c-1.9,0.1-3.6,0.2-4.8,0.4c-0.8,0.2-1.7-0.3-2.4-1c0.5,0.1,1,0.2,1.6,0.2h0  c0.5,0,1-0.1,1.5-0.2c0.7-0.2,1.8-0.2,3-0.3c2-0.1,4.6-0.2,6.9-1c0.5-0.2,1.2-0.4,2.1-0.7c2.7-1,6.9-2.5,10.3-2.7  C37.8,46.3,38.3,46.2,38.8,46.1z M38.8,51c-2,3.4-6.2,5.7-12.3,7c-3.8,0.8-8,0.6-11.6-0.5c-2.6-0.8-4.1-2.8-4.9-4.9  c1.1,1.1,2.5,1.9,4,1.9c0,0,0,0,0,0c0.3,0,0.5,0,0.8-0.1c1-0.2,2.6-0.3,4.4-0.4c1.8-0.1,3.9-0.2,5.8-0.4c1-0.1,2-0.7,3.1-1.3  c2-1.2,4.7-2.7,9.6-2.8c0.9,0,1.6-0.3,2.1-0.8C39.6,49.5,39.3,50.2,38.8,51z"/></svg>
