<svg xmlns="http://www.w3.org/2000/svg" xmlns:xlink="http://www.w3.org/1999/xlink" version="1.1" x="0px" y="0px" viewBox="0 0 100 125" enable-background="new 0 0 100 100" xml:space="preserve"><g><path d="M84.959,46.907c-0.229-0.003-0.457-0.005-0.686-0.005c-2.672,0-4.908,0.197-6.842,0.604   c-0.391,0.082-0.691,0.393-0.76,0.784c-1.086,6.096-2.918,12.057-5.447,17.715c-0.16,0.358-0.09,0.778,0.178,1.064   c0.188,0.2,0.449,0.309,0.715,0.309c0.111,0,0.225-0.019,0.336-0.061c5.508-2.034,10.295-6.024,13.139-10.947   c0.904-1.566,1.545-3.151,1.854-4.582c0.293-1.349,0.287-2.465-0.01-3.317C87.09,47.492,86.189,46.922,84.959,46.907z    M85.539,51.377c-0.268,1.234-0.834,2.624-1.639,4.019c-2.234,3.867-5.777,7.113-9.93,9.15c2.016-4.916,3.525-10.034,4.5-15.255   c1.816-0.322,3.975-0.463,6.465-0.434c0.568,0.008,0.637,0.197,0.658,0.26C85.693,49.403,85.82,50.077,85.539,51.377z"/><path d="M91.695,46.986c-1.023-2.92-3.396-4.549-6.684-4.588c-2.031-0.027-3.902,0.051-5.586,0.233   c0.127-1.249,0.227-2.504,0.297-3.747c0.016-0.268-0.08-0.529-0.264-0.725c-0.186-0.195-0.439-0.306-0.711-0.306H14.862   c-0.527,0-0.959,0.42-0.975,0.947c-0.416,14.345,4.7,28.22,15.642,42.417c0.185,0.239,0.47,0.38,0.772,0.38h33.675   c0.316,0,0.613-0.154,0.797-0.414c1.949-2.767,3.73-5.618,5.299-8.476c8.111-1.78,15.35-7.014,19.426-14.073   c1.145-1.979,1.963-4.022,2.369-5.909C92.326,50.6,92.266,48.615,91.695,46.986z M89.959,52.314   c-0.365,1.69-1.107,3.539-2.15,5.343c-3.877,6.714-10.818,11.66-18.572,13.232c-0.283,0.057-0.527,0.237-0.664,0.492   c-1.506,2.783-3.223,5.562-5.105,8.265H30.782C20.569,66.27,15.667,53.221,15.818,39.804h61.893   c-0.088,1.279-0.209,2.566-0.357,3.838c-0.035,0.301,0.072,0.602,0.289,0.813c0.219,0.212,0.523,0.309,0.822,0.266   c1.725-0.254,3.623-0.377,5.805-0.377c0.238,0,0.479,0.002,0.719,0.004c2.477,0.031,4.113,1.135,4.865,3.283   C90.309,48.919,90.344,50.54,89.959,52.314z"/><path d="M89.689,84.737H8.804c-0.539,0-0.976,0.437-0.976,0.976v0.23c0,4.742,3.856,8.598,8.597,8.598h65.644   c4.74,0,8.598-3.855,8.598-8.598v-0.23C90.666,85.174,90.229,84.737,89.689,84.737z M82.068,92.591H16.425   c-3.412,0-6.232-2.586-6.604-5.903h78.854C88.301,90.005,85.48,92.591,82.068,92.591z"/><path d="M42.556,33.786c-0.336,0.421-0.268,1.034,0.154,1.37c0.179,0.145,0.395,0.214,0.607,0.214c0.286,0,0.57-0.126,0.764-0.367   c4.794-6.007,2.204-10.232-0.082-13.96c-2.417-3.943-4.701-7.668,0.098-14.02c0.324-0.429,0.24-1.041-0.19-1.365   c-0.431-0.326-1.04-0.241-1.367,0.189c-5.601,7.412-2.733,12.088-0.202,16.215C44.66,25.853,46.496,28.847,42.556,33.786z"/><path d="M50.173,33.786c-0.336,0.421-0.268,1.034,0.154,1.37c0.18,0.145,0.395,0.214,0.607,0.214c0.285,0,0.57-0.126,0.761-0.367   c5.086-6.368,2.416-10.366,0.064-13.893c-2.183-3.272-3.907-5.856-0.44-10.335c0.33-0.425,0.25-1.037-0.174-1.368   c-0.428-0.329-1.041-0.252-1.369,0.175c-4.326,5.588-1.836,9.319,0.36,12.611C52.406,25.594,54.367,28.531,50.173,33.786z"/></g></svg>
