<svg xmlns="http://www.w3.org/2000/svg" xmlns:xlink="http://www.w3.org/1999/xlink" version="1.1" x="0px" y="0px" viewBox="0 0 48 60" enable-background="new 0 0 48 48" xml:space="preserve"><g><path fill="#000000" d="M14.5,28.2c-3.8,0-7.3-1.5-9.9-4.1c-2.6-2.6-4-6.1-4-9.8c0-3.7,1.5-7.2,4.2-9.8c2.6-2.6,6.1-4,9.8-4   c3.8,0,7.3,1.5,9.9,4.1c2.6,2.6,4,6.1,4,9.8c0,3.7-1.5,7.2-4.2,9.8C21.6,26.8,18.2,28.2,14.5,28.2z M14.5,2.5   c-3.2,0-6.1,1.2-8.4,3.4c-2.3,2.2-3.5,5.2-3.6,8.4c0,3.2,1.2,6.1,3.4,8.4c2.3,2.3,5.3,3.5,8.5,3.5c3.2,0,6.1-1.2,8.4-3.4   c2.3-2.2,3.5-5.2,3.6-8.4c0-3.2-1.2-6.1-3.4-8.4C20.7,3.8,17.7,2.5,14.5,2.5z"/><path fill="#000000" d="M23.6,24.5c-0.3,0-0.5-0.1-0.7-0.3L4.7,5.9c-0.4-0.4-0.4-1,0-1.4c0.4-0.4,1-0.4,1.4,0l18.2,18.3   c0.4,0.4,0.4,1,0,1.4C24.1,24.4,23.8,24.5,23.6,24.5z"/><path fill="#000000" d="M6.4,23c-0.3,0-0.5-0.1-0.7-0.3c-0.4-0.4-0.4-1,0-1.4L21.8,5.6c0.4-0.4,1-0.4,1.4,0c0.4,0.4,0.4,1,0,1.4   L7.1,22.8C6.9,22.9,6.7,23,6.4,23z"/><path fill="#000000" d="M41.8,47.5C41.8,47.5,41.8,47.5,41.8,47.5c-1.6,0-3.1-0.7-4.2-1.8L26.1,33.3c-0.9-1-1.1-2.4-0.5-3.5   L22,24.9c-0.3-0.4-0.3-1,0.1-1.3l1.6-1.6c0.4-0.3,0.9-0.4,1.3-0.1l4.9,3.7c1.1-0.6,2.6-0.4,3.5,0.5l12.3,11.7   c1.1,1.1,1.7,2.5,1.8,4c0,1.5-0.6,3-1.7,4.1C44.7,46.9,43.3,47.5,41.8,47.5z M24.1,24.4l3.6,4.8c0.3,0.4,0.3,1-0.1,1.3   c-0.4,0.4-0.4,1,0,1.5l11.6,12.4c0.7,0.8,1.7,1.2,2.7,1.2c0,0,0,0,0,0c1,0,1.9-0.4,2.6-1c0.7-0.7,1.1-1.6,1.1-2.6   c0-1-0.4-1.9-1.1-2.6L32,27.6c-0.4-0.4-1.1-0.4-1.5,0c-0.4,0.3-0.9,0.4-1.3,0.1L24.5,24L24.1,24.4z"/><path fill="#000000" d="M42.7,43.7c-0.3,0-0.5-0.1-0.7-0.3l-3.6-3.6c-0.4-0.4-0.4-1,0-1.4c0.4-0.4,1-0.4,1.4,0l3.6,3.6   c0.4,0.4,0.4,1,0,1.4C43.2,43.6,42.9,43.7,42.7,43.7z"/></g></svg>
