<svg xmlns="http://www.w3.org/2000/svg" xmlns:xlink="http://www.w3.org/1999/xlink" version="1.1" x="0px" y="0px" viewBox="0 0 100 125" enable-background="new 0 0 100 100" xml:space="preserve"><g><path d="M74.6,24.4c-6-9.1-14.2-15.9-14.5-16.2l-2.4-2l0.3,3.1c0,0.1,1.3,11.8,0.3,21.9c-0.9-0.9-1.8-1.7-2.8-2.5   c-6.3-5.1-18.3-10.5-18.8-10.7l-3-1.3l1.3,3c0,0.1,0.2,0.3,0.4,0.7c4.2,6.4,6.5,13.5,7,21.3c0,0.5,0.1,1,0.2,1.4l-24.7-13l2.1,3.7   c0.1,0.2,9.4,16.6,14.9,29.7c3.4,8.2,13.3,10.4,13.4,10.4l14.3,2.9c3.8,1.8,6.5,5,6.9,9.3l0,1.2l5-0.1c0.4-1.4,1.4-2.2,2.8-2.5   l0.3-1.2c1.3-4.4,1.2-11.7,0.9-14.6c-0.4-3.4,0.1-6.6,0.7-9.3l0.8-4C82.3,44.1,80.3,33,74.6,24.4z M69.4,67.9l0.1,0.3   c-0.1-0.1-0.1-0.2-0.2-0.3c-1-1.6-2.4-3.1-4.1-4.3l3.4-3.4L69.4,67.9z M65.9,47.8c0.3,1,0.7,2,1,3l-6.1,6.1   c-0.4-0.9-0.9-1.7-1.4-2.5L65.9,47.8z M64.9,45.3l-7.1,7.1c-0.6-0.7-1.3-1.3-2-1.9l7.8-7.9C64.1,43.4,64.5,44.3,64.9,45.3z    M60.8,37.9c0.6,0.8,1.1,1.6,1.6,2.4l-8.6,8.6c-0.4-0.3-0.9-0.6-1.4-0.8l-1.1-0.6L60.8,37.9z M59.3,35.9L48.9,46.3l-2.6-1.4   l11.1-11.1C58.1,34.5,58.7,35.2,59.3,35.9z M54,30.6c0.6,0.4,1.1,0.9,1.6,1.4L45.2,42.5c-0.1-0.3-0.1-0.7-0.2-1   c0-0.8-0.1-1.7-0.2-2.5l8.7-8.7C53.7,30.4,53.8,30.5,54,30.6z M51.4,28.8l-7.1,7.1c-0.2-1.1-0.4-2.2-0.7-3.2l5.4-5.4   C49.9,27.7,50.7,28.2,51.4,28.8z M39.4,22c0.8,0.4,1.6,0.8,2.5,1.3l-1.2,1.2C40.3,23.7,39.9,22.8,39.4,22z M41.8,27l2.5-2.5   c0.8,0.5,1.7,0.9,2.5,1.4l-4,4C42.5,28.9,42.2,27.9,41.8,27z M43.1,53.7l-1.6,1.9c4.6,3.9,14.7,12.7,20.8,18.7l-13.4-2.8   c-2.4-0.5-9.1-3.1-11.6-8.9c-3.9-9.5-9.9-20.7-13-26.4l26.8,14.1c4,2.1,6.9,5.6,8.3,9.9l3.5,11.2C55.4,64.2,43.8,54.3,43.1,53.7z    M62.6,61.9l-0.7-2.4c0,0,0-0.1,0-0.1l5.8-5.8c0.2,1.1,0.4,2.2,0.6,3.3L63,62.1C62.8,62.1,62.7,62,62.6,61.9z M66.1,73.2l-2.4-7.8   c1.3,0.9,2.5,2.1,3.3,3.4l0.2,0.3c0.4,0.6,2,3.3,3,8.3C68.9,75.9,67.5,74.5,66.1,73.2z M74.2,74.4c-0.8-3.1-1.8-5.7-2.3-7l-0.6-4.9   C74.1,62.6,75.9,72.3,74.2,74.4z"/><path d="M60.6,88.7c-2.4,0-4.4-2-4.4-4.4c0-2.4,2-4.4,4.4-4.4s4.4,2,4.4,4.4C64.9,86.7,63,88.7,60.6,88.7z M60.6,82.4   c-1,0-1.9,0.8-1.9,1.9c0,1,0.8,1.9,1.9,1.9c1,0,1.9-0.8,1.9-1.9C62.5,83.3,61.6,82.4,60.6,82.4z"/><path d="M31.9,81.6c-3.1,0-5.6-2.5-5.6-5.6s2.5-5.6,5.6-5.6s5.6,2.5,5.6,5.6S34.9,81.6,31.9,81.6z M31.9,73c-1.7,0-3.1,1.4-3.1,3.1   s1.4,3.1,3.1,3.1s3.1-1.4,3.1-3.1S33.6,73,31.9,73z"/><path d="M44.4,93.8c-2.7,0-4.9-2.2-4.9-4.9c0-2.7,2.2-4.9,4.9-4.9c2.7,0,4.9,2.2,4.9,4.9C49.3,91.6,47.1,93.8,44.4,93.8z    M44.4,86.4c-1.3,0-2.4,1.1-2.4,2.4s1.1,2.4,2.4,2.4c1.3,0,2.4-1.1,2.4-2.4S45.7,86.4,44.4,86.4z"/><circle cx="47.7" cy="78.8" r="2.6"/></g></svg>
