<?xml version="1.0" encoding="utf-8"?>
<!-- Generator: Adobe Illustrator 16.0.0, SVG Export Plug-In . SVG Version: 6.00 Build 0)  -->
<!DOCTYPE svg PUBLIC "-//W3C//DTD SVG 1.1//EN" "http://www.w3.org/Graphics/SVG/1.1/DTD/svg11.dtd">
<svg version="1.1" id="Layer_1" xmlns="http://www.w3.org/2000/svg" xmlns:xlink="http://www.w3.org/1999/xlink" x="0px" y="0px"
	 width="150px" height="150px" viewBox="0 0 150 150" enable-background="new 0 0 150 150" xml:space="preserve">
<g>
	<path d="M75.007,120.115c-23.893,0-43.348-18.759-44.581-42.347h13.998L23.252,54.244L2.079,77.769h14.233
		c1.242,31.39,27.007,56.462,58.696,56.462c15.042,0,28.719-5.693,39.123-14.986l-9.984-9.983
		C96.316,116.008,86.148,120.115,75.007,120.115z"/>
	<path d="M133.698,73.064c-1.246-31.378-27.008-56.461-58.696-56.461c-15.042,0-28.72,5.693-39.123,14.986l9.984,9.984
		c7.83-6.747,17.997-10.855,29.144-10.855c23.887,0,43.347,18.759,44.58,42.346h-13.998l21.174,23.525l21.173-23.525H133.698z"/>
</g>
</svg>
