<svg xmlns="http://www.w3.org/2000/svg" xmlns:xlink="http://www.w3.org/1999/xlink" version="1.1" x="0px" y="0px" viewBox="0 0 90 112.5" enable-background="new 0 0 90 90" xml:space="preserve"><path fill="none" d="M72.629,39.825c-3.138,0.34-4.784,0.677-4.784,0.677v-7.094c0-0.15-0.034-0.296-0.081-0.44  c0.049-0.2,0.081-0.401,0.081-0.606c0-4.364-11.319-7.9-25.278-7.9c-13.962,0-25.28,3.536-25.28,7.9  c0,0.205,0.033,0.406,0.083,0.606c-0.049,0.144-0.083,0.29-0.083,0.44v43.273c0,1.092,0,3.995,0,4.432c0,4.362,11.318,7.9,25.28,7.9  c13.958,0,25.278-3.538,25.278-7.9c0-0.437,0-3.34,0-4.432v-4.145l4.784,0.678c6.797,0,12.306-4.924,12.306-11.83v-9.73  C84.935,42.971,76.873,39.367,72.629,39.825z M80.081,61.385c0,4.616-2.609,6.265-6.773,7.162c-1.271,0.272-5.463-0.68-5.463-0.68  V45.171c0,0,4.205-1.003,5.463-0.677c4.051,1.048,6.773,2.545,6.773,7.161V61.385z"/><g><path d="M72.629,38.979c-1.675,0.197-3.353,0.388-5.009,0.708c0.356,0.272,0.714,0.544,1.071,0.816   c0-5.696,1.206-10.213-4.492-13.173c-10.197-5.297-24.755-4.454-35.623-2.411c-4.959,0.932-12.136,2.703-12.136,8.757   c0,5.634,0,11.269,0,16.904c0,7.407,0,14.814,0,22.222c0,3.848-1.168,8.912,1.9,11.725c2.995,2.746,7.953,3.602,11.756,4.316   c7.042,1.324,14.379,1.257,21.477,0.501c5.834-0.622,17.118-1.937,17.118-9.664c0-2.381,0-4.762,0-7.143   c-0.357,0.272-0.715,0.544-1.071,0.816c4.697,0.665,8.414,1.026,12.704-1.583c4.283-2.606,5.457-7.439,5.457-12.093   c0-4.141,0.839-9.684-1.18-13.498C82.273,41.781,77.717,38.713,72.629,38.979c-1.086,0.057-1.092,1.75,0,1.692   c4.841-0.252,9.112,2.857,10.873,7.285c1.144,2.877,0.586,6.967,0.586,10.004c0,4.867-0.327,9.087-4.618,12.349   c-3.475,2.642-7.464,1.97-11.4,1.412c-0.534-0.075-1.071,0.213-1.071,0.816c0,2.381,0,4.762,0,7.143   c0,4.784-5.635,5.962-9.444,6.928c-10.952,2.774-25.322,2.731-35.767-1.924c-4.748-2.115-3.654-6.976-3.654-11.301   c0-5.613,0-11.228,0-16.841c0-5.992,0-11.984,0-17.976c0-4.168-0.689-7.519,3.654-9.775c10.077-5.234,25.074-4.266,35.767-1.922   c3.877,0.85,8.612,2.081,9.394,6.325c0.426,2.307,0.051,4.962,0.051,7.309c0,0.583,0.538,0.919,1.071,0.816   c1.509-0.29,3.035-0.467,4.56-0.647C73.699,40.545,73.712,38.851,72.629,38.979z"/><path d="M79.234,61.385c-0.352,5.906-5.533,6.766-10.304,5.849c-1.283-0.246-0.239,0.975-0.239,0.188c0-0.807,0-1.612,0-2.418   c0-5.184,0-10.367,0-15.551c0-1.36,0-2.72,0-4.079c0,0.611-0.543,0.579,1.133,0.244c2.861-0.57,5.418-0.123,7.791,1.718   C80.606,49.655,79.234,58.078,79.234,61.385c0,1.092,1.693,1.092,1.693,0c0-4.183,0.839-9.37-0.728-13.339   c-1.936-4.904-8.479-4.638-12.58-3.691c-0.365,0.084-0.622,0.452-0.622,0.816c0,7.565,0,15.131,0,22.696   c0,0.361,0.257,0.735,0.622,0.816c6.19,1.363,12.863,0.164,13.308-7.299C80.992,60.294,79.299,60.3,79.234,61.385z"/></g><g><path d="M64.276,32.955c-0.932,6.062-17.58,5.722-21.552,5.769c-3.952,0.047-20.628,0.23-21.55-5.769   c-0.083-0.538-0.898-0.309-0.816,0.225c0.361,2.347,3.015,3.295,4.962,4.043c5.392,2.072,11.712,2.28,17.405,2.348   c5.822,0.068,11.852-0.541,17.405-2.348c1.956-0.637,4.612-1.763,4.963-4.043C65.175,32.646,64.359,32.417,64.276,32.955   L64.276,32.955z"/></g><ellipse cx="42.725" cy="34.282" rx="20.402" ry="5.079"/><g><path d="M33.264,18.97c0.352-1.404,3.019-2.098,1.943-3.934c-0.68-1.16-2.435-2.228-0.549-3.638c0.455-0.34,0.766-0.89,0.766-1.468   c0-0.667-0.29-0.941-0.68-1.402c-1.275-1.505-0.639-2.399,0.397-3.624c1.366-1.615-1.588-2.875-1.877-4.03   c-0.132-0.529-0.949-0.305-0.816,0.225c0.154,0.615,0.208,0.951,0.75,1.358c1.64,1.228,0.399,2.518-0.483,3.561   c-0.89,1.052,0.213,2.201,1,2.789c1.625,1.215-2.043,3.28-1.065,4.949c0.473,0.808,2.921,1.864,1.065,3.25   c-0.726,0.542-1.048,0.869-1.267,1.74C32.315,19.275,33.131,19.5,33.264,18.97L33.264,18.97z"/></g><g><path d="M42.107,18.97c0.352-1.404,3.019-2.098,1.943-3.934c-0.68-1.16-2.435-2.228-0.549-3.638c0.455-0.34,0.766-0.89,0.766-1.468   c0-0.667-0.29-0.941-0.68-1.402c-1.275-1.505-0.639-2.399,0.397-3.624c1.366-1.615-1.588-2.875-1.877-4.03   c-0.132-0.529-0.949-0.305-0.816,0.225c0.154,0.615,0.208,0.951,0.75,1.358c1.64,1.228,0.399,2.518-0.483,3.561   c-0.89,1.052,0.213,2.201,1,2.789c1.625,1.215-2.043,3.28-1.065,4.949c0.473,0.808,2.921,1.864,1.065,3.25   c-0.726,0.542-1.048,0.869-1.267,1.74C41.158,19.275,41.974,19.5,42.107,18.97L42.107,18.97z"/></g><g><path d="M50.447,18.97c0.353-1.404,3.019-2.098,1.943-3.934c-0.681-1.16-2.436-2.228-0.55-3.638c0.456-0.34,0.766-0.89,0.766-1.468   c0-0.667-0.289-0.941-0.68-1.402c-1.275-1.505-0.639-2.399,0.397-3.624c1.366-1.615-1.588-2.875-1.877-4.03   c-0.133-0.529-0.948-0.305-0.816,0.225c0.153,0.615,0.207,0.951,0.751,1.358c1.64,1.228,0.399,2.518-0.483,3.561   c-0.89,1.052,0.214,2.201,0.999,2.789c1.626,1.215-2.042,3.28-1.065,4.949c0.474,0.808,2.922,1.864,1.065,3.25   c-0.726,0.542-1.048,0.869-1.267,1.74C49.498,19.275,50.314,19.5,50.447,18.97L50.447,18.97z"/></g><line fill="none" stroke="#000000" stroke-miterlimit="10" x1="25.32" y1="37.223" x2="25.32" y2="66.499"/><path d="M20.79,65.31v11.092l9.06,2.251V67.561L20.79,65.31z M28.85,77.373l-7.06-1.753v-9.031l7.06,1.753V77.373z"/><path stroke="#FFFFFF" stroke-width="0.25" stroke-miterlimit="10" d="M26.417,72.608c-0.004,1.268-1.255,1.93-1.255,1.93  s-1.243-1.392-1.239-2.659c0.004-1.268,1.254-1.931,1.254-1.931S26.421,71.341,26.417,72.608z" fill="#000000"/><g><polygon fill="none" points="28.85,76.583 29.947,76.855 29.947,67.824 22.888,66.071 22.888,66.861 28.85,68.342  "/><polygon points="21.888,64.792 21.888,66.613 22.888,66.861 22.888,66.071 29.629,67.745 29.629,76.776 28.85,76.583 28.85,77.373    21.888,75.645 21.888,75.884 30.947,78.135 30.947,67.043  "/></g></svg>
