<svg xmlns="http://www.w3.org/2000/svg" xmlns:xlink="http://www.w3.org/1999/xlink" version="1.1" x="0px" y="0px" viewBox="0 0 100 125" enable-background="new 0 0 100 100" xml:space="preserve"><path fill="#000000" d="M94.43,48.462c0-8.282-6.739-15.018-15.021-15.018c-1.335,0-2.66,0.177-3.943,0.524  c-0.322,0.086-0.603,0.246-0.841,0.449c-4.262-4.444-9.85-7.632-16.188-8.91c0.004-0.131,0.009-0.266,0.009-0.403  c0-3.413-2.772-6.187-6.18-6.187c-3.413,0-6.185,2.774-6.185,6.187c0,0.138,0.005,0.273,0.016,0.406  c-10.67,2.172-19.539,9.933-23.11,20.221l-9.658-4.49c-1.021-0.476-2.237-0.099-2.81,0.876l-4.644,7.883  c-0.573,0.974-0.314,2.219,0.597,2.884L22.524,64.57c1.863,6.373,5.789,12.056,11.111,16.07c0.378,0.284,0.844,0.442,1.32,0.442  h34.619c0.476,0,0.936-0.157,1.316-0.442c5.854-4.412,9.847-10.551,11.502-17.456C89.332,61.786,94.43,55.669,94.43,48.462z   M49.174,29.456c0.755-0.086,1.411-0.563,1.73-1.248c0.325-0.685,0.268-1.487-0.145-2.127c-0.198-0.3-0.298-0.627-0.298-0.977  c0-0.993,0.812-1.806,1.805-1.806c0.994,0,1.801,0.813,1.801,1.806c0,0.349-0.096,0.677-0.294,0.977  c-0.412,0.64-0.469,1.442-0.149,2.127c0.324,0.685,0.979,1.162,1.735,1.248c4.742,0.548,9.067,2.327,12.683,4.991H36.553  C40.197,31.769,44.522,29.994,49.174,29.456z M63.125,55.672l3.14,2.219v7.491h-6.18v-7.506L63.125,55.672z M68.826,76.702H35.704  c-4.463-3.556-7.7-8.505-9.155-14.01c-0.13-0.487-0.421-0.914-0.826-1.215L10.659,50.51l2.623-4.459l10.145,4.719  c0.595,0.276,1.277,0.274,1.864-0.008c0.592-0.277,1.026-0.805,1.184-1.435c0.998-3.935,2.881-7.504,5.403-10.507  c0.028,0.001,0.054,0.008,0.082,0.008h29.526v12.623l-4.875,3.531c-0.57,0.415-0.905,1.072-0.905,1.774v10.817  c0,1.209,0.978,2.191,2.187,2.191h10.565c1.208,0,2.188-0.982,2.188-2.191V56.755c0-0.708-0.345-1.377-0.925-1.787l-3.854-2.723  V38.828h6.706c0.039,0,0.075-0.009,0.113-0.011c3.875,4.639,6.189,10.603,6.189,17.062C78.874,64.069,75.221,71.617,68.826,76.702z   M83.139,58.423c0.068-0.842,0.114-1.688,0.114-2.543c0-6.627-2.092-12.806-5.675-17.878c0.603-0.104,1.212-0.176,1.83-0.176  c5.868,0,10.642,4.773,10.642,10.637C90.05,52.989,87.21,56.901,83.139,58.423z"/></svg>
