<svg xmlns="http://www.w3.org/2000/svg" xmlns:xlink="http://www.w3.org/1999/xlink" version="1.1" x="0px" y="0px" viewBox="0 0 100 125" enable-background="new 0 0 100 100" xml:space="preserve"><g><path d="M61.2,35.9c0,0-4.6,4.3-10,10.1c-4.5-1.7-9.7-2.7-15.3-2.7C18.8,43.2,5,52.4,5,63.8c0,4.2,1.9,8.2,5.2,11.5l0,0   c0,0-3.3,3.1-2.7,5.5c0.4,1.5,2.1,4.2,5.6,4.2c2,0,4.5-0.8,7.8-3.2c4.4,1.6,9.5,2.6,14.9,2.6c17.1,0,30.9-9.2,30.9-20.6   c0-5.6-3.3-10.7-8.8-14.4l9.8-10.6L61.2,35.9z M13.5,82c-0.6,0-1.2-0.1-1.8-0.4c-2.9-1.4,0.6-4.6,0.6-4.6l-0.1,0   c1.7,1.3,3.6,2.5,5.8,3.5C17,81.1,15.2,82,13.5,82z M62.2,63.9c0,9.4-12.1,15.3-26.3,15.3S9.6,73.4,9.6,63.9   c0-9.4,12.1-17.1,26.3-17.1S62.2,54.5,62.2,63.9z"/><path d="M94.7,9.7C92.1,4.2,82.2,0.8,62.4,32c-0.4,0.6-0.3,1.4,0.3,1.8l7.1,3.4c0.6,0.5,1.5,0.5,2-0.1c2.2-2.4,7.6-5.9,10.8-9.2   C85.8,24.4,97,14.8,94.7,9.7z M86.4,13.7c-1.6,0-2.8-0.7-2.8-1.7c0-0.9,1.3-1.7,2.8-1.7c1.6,0,2.8,0.7,2.8,1.7   C89.2,12.9,87.9,13.7,86.4,13.7z"/><path d="M60.8,64.1c0,0-2.9-15.7-24.9-15.7S11.3,64.1,11.3,64.1s0.3-0.7,1-1.8c0.1,0.6,0.3,1.7,0.7,3.2c-0.7,1.5-0.9,2.5-0.9,2.6   c-0.1,0.4,0.2,0.8,0.6,0.9c0.1,0,0.1,0,0.2,0c0.4,0,0.7-0.3,0.8-0.6c0,0,0-0.2,0.1-0.5c0.3,0.8,0.7,1.7,1.1,2.5   c-0.2,0.5-0.3,0.8-0.3,0.9c-0.1,0.4,0.1,0.9,0.6,1c0.1,0,0.1,0,0.2,0c0.2,0,0.4-0.1,0.5-0.2c0.1,0.1,0.1,0.2,0.2,0.3   c0.2,0.2,0.4,0.3,0.7,0.3c0.2,0,0.3,0,0.4-0.1c0.4-0.2,0.5-0.7,0.2-1.1c-0.3-0.4-0.5-0.8-0.7-1.1c0.3-0.6,0.7-1.4,1.4-2.4   c0.3,0.9,0.7,1.9,1.1,2.8c-0.9,1.4-1.4,2.4-1.4,2.5c-0.2,0.4,0,0.9,0.4,1c0.1,0,0.2,0.1,0.3,0.1c0.3,0,0.6-0.2,0.7-0.5   c0,0,0.3-0.6,0.8-1.5c0.6,1.1,1.3,2.3,2.1,3.3c0.2,0.2,0.4,0.3,0.6,0.3c0.2,0,0.3-0.1,0.5-0.2c0.4-0.3,0.4-0.8,0.2-1.1   c-0.9-1.2-1.7-2.6-2.4-3.9c0.5-0.7,1.1-1.3,1.8-2c1.2,3,2.9,6,5.4,8.3c0.2,0.1,0.3,0.2,0.5,0.2c0.2,0,0.4-0.1,0.6-0.3   c0.3-0.3,0.3-0.8,0-1.1c-2.4-2.2-4-5.2-5.1-8.2c0.8-0.6,1.8-1,2.8-1.3c0.4-0.1,0.7-0.6,0.5-1c-0.1-0.4-0.6-0.7-1-0.5   c-1.1,0.3-2,0.8-2.9,1.3c-0.3-1-0.6-2.1-0.8-3.1c1-0.7,2.2-1.4,3.6-2c0.4-0.2,0.6-0.6,0.4-1c-0.2-0.4-0.6-0.6-1-0.4   c-1.2,0.5-2.4,1.1-3.3,1.8c-0.2-1.2-0.4-2.3-0.5-3.3c1.4-0.8,3.1-1.6,5-2.2c0.4-0.1,0.6-0.6,0.5-1c-0.1-0.4-0.6-0.6-1-0.5   c-1.8,0.6-3.3,1.3-4.7,2c-0.1-0.9-0.1-1.7-0.1-2.2c3.6-1.7,8.2-3,14.3-3c6.2,0,10.9,1.3,14.6,3.1c0,0.5,0,1.2-0.1,2.1   c-1.4-0.7-2.9-1.4-4.7-2c-0.4-0.1-0.9,0.1-1,0.5c-0.1,0.4,0.1,0.9,0.5,1c1.9,0.6,3.6,1.4,5,2.2c-0.1,1-0.3,2.1-0.5,3.3   c-1-0.6-2.1-1.2-3.3-1.8c-0.4-0.2-0.9,0-1,0.4c-0.2,0.4,0,0.9,0.4,1c1.4,0.6,2.6,1.3,3.6,2c-0.2,1-0.5,1.9-0.8,2.9   c-2-1.4-3.7-1.8-3.8-1.8c-0.4-0.1-0.9,0.2-0.9,0.6c-0.1,0.4,0.2,0.9,0.6,0.9c0,0,1.7,0.4,3.6,1.8c-1.1,3.1-2.8,6.1-5.2,8.3   c-0.3,0.3-0.3,0.8,0,1.1c0.2,0.2,0.4,0.3,0.6,0.3c0.2,0,0.4-0.1,0.5-0.2c2.5-2.3,4.2-5.3,5.4-8.4c0.6,0.6,1.2,1.3,1.8,2.1   c-0.7,1.3-1.4,2.6-2.4,3.9c-0.3,0.4-0.2,0.8,0.2,1.1c0.1,0.1,0.3,0.2,0.5,0.2c0.2,0,0.5-0.1,0.6-0.3c0.8-1,1.5-2.1,2.1-3.2   c0.2,0.4,0.4,0.9,0.6,1.3c0.1,0.3,0.4,0.5,0.7,0.5c0.1,0,0.2,0,0.3-0.1c0.4-0.2,0.6-0.6,0.4-1c-0.4-0.9-0.8-1.7-1.2-2.5   c0.4-1,0.8-1.9,1.2-2.9c0.6,0.9,1.1,1.7,1.4,2.4c-0.2,0.4-0.5,0.8-0.7,1.1c-0.2,0.4-0.2,0.9,0.2,1.1c0.1,0.1,0.3,0.1,0.4,0.1   c0.3,0,0.5-0.1,0.7-0.3c0.1-0.1,0.1-0.2,0.2-0.3c0.1,0.1,0.3,0.2,0.5,0.2c0.1,0,0.1,0,0.2,0c0.4-0.1,0.7-0.5,0.6-1   c0-0.1-0.1-0.4-0.3-0.9c0.4-0.8,0.8-1.7,1.1-2.5c0.1,0.3,0.1,0.5,0.1,0.5c0.1,0.4,0.4,0.6,0.8,0.6c0.1,0,0.1,0,0.2,0   c0.4-0.1,0.7-0.5,0.6-0.9c0-0.1-0.2-1.2-0.9-2.6c0.4-1.4,0.6-2.5,0.7-3.1C60.5,63.4,60.8,64.1,60.8,64.1z M13.9,61.8   c0-0.4-0.3-0.6-0.7-0.7c0.7-0.9,1.6-1.9,2.7-2.9c0,0.6,0.1,1.5,0.3,2.6c-0.8,0.9-1.5,1.8-2,2.6C14,62.4,13.9,61.8,13.9,61.8z    M15.7,68.5c-0.4-1-0.8-2-1-2.9c0.4-0.8,1-1.8,1.8-2.8c0.2,1,0.5,2.1,0.8,3.3C16.7,67,16.1,67.8,15.7,68.5z M22.2,67.4   c-0.8,0.6-1.4,1.3-2,2c-0.4-1-0.8-1.9-1-2.8c0.6-0.7,1.3-1.4,2.2-2.1C21.6,65.3,21.8,66.3,22.2,67.4z M20.9,62.6   c-0.9,0.7-1.7,1.4-2.3,2.1c-0.3-1.2-0.5-2.3-0.7-3.3c0.7-0.7,1.5-1.4,2.5-2.1C20.5,60.3,20.7,61.4,20.9,62.6z M20.2,57.5   c-1,0.6-1.8,1.3-2.6,2c-0.1-1.2-0.2-1.9-0.2-1.9c0-0.2-0.1-0.3-0.2-0.5c0.8-0.6,1.8-1.3,2.8-1.9C20.1,55.8,20.1,56.6,20.2,57.5z    M52,55.3c1,0.6,1.9,1.2,2.7,1.8c-0.1,0.1-0.1,0.2-0.1,0.4c0,0,0,0.7-0.2,1.9c-0.8-0.7-1.6-1.3-2.6-2C52,56.7,52,55.9,52,55.3z    M51.7,59.3c1,0.7,1.8,1.4,2.5,2.1c-0.2,1-0.4,2.1-0.7,3.3c-0.7-0.7-1.4-1.4-2.3-2C51.4,61.4,51.6,60.3,51.7,59.3z M51.9,69.3   c-0.6-0.8-1.3-1.5-2-2.1c0.3-1,0.6-1.9,0.8-2.9c0.9,0.7,1.6,1.4,2.2,2.1C52.7,67.4,52.3,68.4,51.9,69.3z M56.4,68.5   c-0.4-0.7-0.9-1.6-1.6-2.4c0.3-1.2,0.6-2.3,0.8-3.3c0.8,1,1.4,1.9,1.8,2.8C57.1,66.5,56.8,67.5,56.4,68.5z M58.2,61.8   c0,0-0.1,0.7-0.3,1.6c-0.5-0.8-1.2-1.7-2-2.6c0.2-1.1,0.2-1.9,0.3-2.5c1.1,1,1.9,1.9,2.6,2.8C58.5,61.2,58.3,61.4,58.2,61.8z"/><path d="M12.1,80c0,0,0.1,0.1,0.3,0.2c0.2,0.1,0.4,0.1,0.6,0.2c-0.3-0.2-0.6-0.4-0.8-0.6C12.1,79.9,12.1,80,12.1,80z"/><path d="M35.9,86.5c-6.4,0-11.5-1.1-15.4-2.4c-1.6,1-3.2,1.8-4.7,2.2c4,3.9,10.4,7.6,20.1,7.6c20.1,0,26.2-16.2,26.2-16.2   S54.5,86.5,35.9,86.5z"/></g></svg>
